# Blender 5.2.2 LTS
# www.blender.org
mtllib key_blade.mtl
o Blade
v 13.710136 -1.251614 -6.649408
v 13.737137 -1.251614 -6.680407
v 14.331886 -1.251614 -5.373659
v 15.932388 0.547486 -6.246904
v 15.963638 -1.251614 -6.272654
v 16.023392 0.547486 -6.327402
v 15.870140 -1.251614 -6.198153
v 15.808640 0.547486 -6.154406
v 15.793640 -1.251614 -6.144655
v 15.736885 0.547486 -6.111902
v 15.736885 -1.251614 -6.111902
v 13.759888 -1.251614 -6.714403
v 18.562386 -1.251614 -8.791407
v 18.376633 -1.251614 -10.011904
v 18.736633 -1.251614 -8.725908
v 16.102890 0.547486 -6.410654
v 16.102890 -1.251614 -6.410654
v 16.175392 -1.251614 -6.502405
v 16.175392 0.547486 -6.502405
v 16.023392 -1.251614 -6.327402
v 13.749138 -1.252514 -7.242907
v 13.749138 -1.251614 -7.242907
v 13.700142 -1.251614 -7.304407
v 13.807388 -1.252514 -7.187403
v 13.807388 -1.251614 -7.187403
v 13.873886 -1.252514 -7.138407
v 13.873886 -1.251614 -7.138407
v 13.947639 -1.252514 -7.097406
v 13.947639 -1.251614 -7.097406
v 14.026886 -1.252514 -7.064653
v 14.026886 -1.251614 -7.064653
v 14.110641 -1.252514 -7.040903
v 14.110641 -1.251614 -7.040903
v -9.001862 -0.347114 -7.327906
v -8.613945 0.547036 -7.514956
v -9.109589 0.547036 -7.515581
v 0.205635 0.547036 -9.367655
v -15.466385 0.547036 -9.367655
v -9.109932 0.547036 -7.175158
v -9.041985 -0.015923 -7.175158
v -11.403046 0.547036 -7.175158
v -11.402786 0.547036 -7.175158
v -11.403389 0.547036 -7.513765
v -9.110191 0.547036 -7.175158
v -11.402519 -1.250714 -7.515284
v -15.464012 -1.250714 -9.367655
v -9.110458 -1.250714 -7.517084
v -7.974113 -0.347114 -7.308657
v 0.205635 -1.250714 -9.367655
v -8.610825 -1.250714 -7.516459
v -7.939857 -0.641151 -7.175158
v -7.974113 -0.347114 -5.735407
v -7.868851 -1.250714 -7.175158
v -7.868851 -1.250714 -5.889200
v -7.870255 0.547036 -7.501024
v -7.869118 -1.250714 -7.175158
v -7.869423 -1.250714 -7.502573
v -5.860565 0.547036 -7.385355
v -7.869675 0.547036 -5.887995
v -7.939857 -0.053856 -7.175158
v 17.211639 0.547486 -8.194902
v 19.238884 -1.251614 -9.457659
v 19.238884 0.547486 -9.457659
v 19.238884 0.547486 -9.383905
v 19.238884 -1.251614 -9.383905
v 17.078392 -1.252514 -10.782656
v 17.078392 -1.251614 -8.188906
v 17.078392 -1.252514 -8.188906
v 17.211639 -1.251614 -8.194902
v 17.274887 -1.251614 -8.343157
v 13.267136 -1.251614 -12.217409
v 13.240135 -1.251614 -12.186403
v 12.826385 -1.251614 -12.811907
v 12.613640 -1.251614 -12.429155
v 13.217392 -1.251614 -12.152407
v 13.332138 -1.251614 -12.267153
v 13.298141 -1.251614 -12.244402
v 13.368889 -1.251614 -12.285158
v 13.488640 -1.251614 -12.309153
v 13.447891 -1.251614 -12.306406
v 13.010391 -1.251614 -13.206903
v 13.407639 0.547486 -12.298403
v 13.447891 0.547486 -12.306406
v 13.010391 0.547486 -13.206903
v 13.114891 0.547486 -13.431406
v 13.066887 0.547486 -13.353159
v 13.488640 0.547486 -12.309153
v 14.197388 -1.252514 -7.026407
v 14.197388 -1.251614 -7.026407
v 14.544388 -1.251614 -7.064653
v 14.623642 -1.251614 -7.097406
v 14.285637 -1.252514 -7.021654
v 14.285637 -1.251614 -7.021654
v 17.494637 -1.251614 -8.598909
v 17.370392 -1.251614 -8.479403
v 17.488136 -1.251614 -8.873735
v 14.373886 -1.252514 -7.026407
v 14.373886 -1.251614 -7.026407
v -7.869942 0.547036 -7.175158
v 17.643639 -1.251614 -8.697405
v 13.660889 -1.252514 -7.803904
v 13.632385 -1.252514 -7.733904
v 13.632385 -1.251614 -7.733904
v 17.812386 -1.251614 -8.771906
v 17.995132 -1.251614 -10.021654
v 11.030388 -1.251614 -8.188906
v 13.615135 -1.251614 -7.661409
v 17.995132 -1.251614 -8.819902
v 18.185135 -1.251614 -10.002153
v 18.185135 -1.251614 -8.839159
v 13.615135 -1.252514 -7.661409
v 12.255386 0.547486 -11.914904
v 12.373138 -1.251614 -12.060152
v 12.255386 -1.251614 -11.914904
v -5.770409 -0.467948 -7.175158
v -5.861603 -1.250714 -7.175158
v -5.861404 -1.250714 -7.387308
v 12.117386 -1.251614 -11.780909
v 17.370392 -1.251614 -10.362154
v 17.274887 -1.251614 -10.498407
v 19.232384 -1.251614 -9.328409
v 12.613640 0.547486 -12.429155
v 18.376633 -1.251614 -8.829653
v 17.643639 -1.251614 -10.144159
v 17.812386 -1.251614 -10.069658
v 17.494637 -1.251614 -10.242655
v 13.609390 -1.251614 -7.587404
v 12.368141 -1.251614 -7.175333
v 13.609390 -1.252514 -7.587404
v 11.030388 -1.252514 -8.188906
v 13.615135 -1.252514 -7.513659
v 13.615135 -1.251614 -7.513659
v 19.069633 -1.251614 -9.006907
v 19.015388 -1.251614 -8.954157
v 19.148636 -1.251614 -9.114656
v 19.217636 -1.251614 -9.268404
v 19.173637 -1.251614 -9.159906
v 13.660889 -1.251614 -7.370905
v 13.488640 -1.251614 -7.184153
v 13.632385 -1.251614 -7.440905
v 14.285637 -1.251614 -8.153406
v 14.197388 -1.251614 -8.148409
v 13.632385 -1.252514 -7.440905
v 13.660889 -1.252514 -7.370905
v 13.700142 -1.252514 -7.304407
v 13.983391 -1.251614 -5.257906
v 13.608391 -1.251614 -6.581659
v 14.065392 -1.251614 -5.276903
v 13.873390 -1.251614 -5.239405
v 13.569641 -1.251614 -6.568407
v 13.756889 -1.251614 -5.229654
v 14.110641 -1.251614 -8.134157
v 14.197388 -1.252514 -8.148409
v 14.285637 -1.252514 -8.153406
v 14.228889 -1.251614 -5.328409
v 13.679138 -1.251614 -6.622408
v 14.110641 -1.252514 -8.134157
v 12.826385 0.547486 -12.811907
v 14.026886 -1.252514 -8.110155
v 14.026886 -1.251614 -8.110155
v 14.246391 0.547486 -5.335154
v 13.608391 0.547486 -6.581659
v 14.065392 0.547486 -5.276903
v 13.942886 0.547486 -5.250658
v 13.873886 -1.251614 -8.036409
v 13.807388 -1.251614 -7.987658
v 13.947639 -1.252514 -8.077402
v 13.947639 -1.251614 -8.077402
v 13.159889 0.547486 -13.479654
v 13.136139 -1.251614 -13.456156
v 13.749138 -1.251614 -7.931910
v 13.873886 -1.252514 -8.036409
v 14.331886 0.547486 -5.373659
v 13.807388 -1.252514 -7.987658
v 13.749138 -1.252514 -7.931910
v 13.700142 -1.252514 -7.870409
v 13.700142 -1.251614 -7.870409
v 13.660889 -1.251614 -7.803904
v 13.756889 0.547486 -5.229654
v 14.373886 -1.251614 -8.148409
v 14.373886 -1.252514 -8.148409
v 14.763641 -1.251614 -7.187403
v 14.821892 -1.251614 -7.242907
v 14.460640 -1.251614 -7.040903
v 14.460640 -1.252514 -7.040903
v 13.267136 0.547486 -12.217409
v 13.240135 0.547486 -12.186403
v 13.332138 0.547486 -12.267153
v 13.298141 0.547486 -12.244402
v 14.544388 -1.252514 -7.064653
v 14.871140 -1.251614 -7.304407
v 13.447891 -1.251614 -7.181406
v 14.623642 -1.252514 -7.097406
v 13.481888 -1.251614 -5.229403
v 13.529388 -1.251614 -6.560404
v 14.697136 -1.252514 -7.138407
v 14.697136 -1.251614 -7.138407
v 13.645142 -1.251614 -6.599657
v -5.861977 -1.250714 -7.175158
v 14.763641 -1.252514 -7.187403
v 13.272888 -1.251614 -5.283159
v 13.336388 -1.251614 -5.255907
v 13.417885 -1.251614 -5.234659
v 14.821892 -1.252514 -7.242907
v -5.756363 -0.347114 -5.735407
v -5.861977 -1.250714 -5.889200
v -5.756363 -0.347114 -7.175158
v 14.910141 -1.251614 -7.370905
v 14.871140 -1.252514 -7.304407
v 14.938637 -1.251614 -7.440905
v 14.910141 -1.252514 -7.370905
v 2.230835 -1.250714 -7.387308
v 2.266640 -0.347114 -7.142405
v -5.430115 -0.467948 -7.175158
v -5.430115 -0.347114 -7.142405
v 14.938637 -1.252514 -7.440905
v 14.955887 -1.252514 -7.513659
v 14.955887 -1.251614 -7.513659
v 14.961639 -1.252514 -7.587404
v 14.961639 -1.251614 -7.587404
v 13.737137 0.547486 -6.680407
v 13.759888 0.547486 -6.714403
v -5.770409 -0.226582 -7.175158
v -5.430115 -0.226582 -7.175158
v 14.955887 -1.252514 -7.661409
v 14.955887 -1.251614 -7.661409
v 2.231125 0.547036 -7.385355
v 14.938637 -1.251614 -7.733904
v 14.910141 -1.251614 -7.803904
v 14.938637 -1.252514 -7.733904
v 14.871140 -1.251614 -7.870409
v 14.910141 -1.252514 -7.803904
v 14.821892 -1.251614 -7.931910
v 14.763641 -1.251614 -7.987658
v 14.871140 -1.252514 -7.870409
v 14.821892 -1.252514 -7.931910
v 14.697136 -1.251614 -8.036409
v 14.623642 -1.251614 -8.077402
v 13.569641 0.547486 -6.568407
v 14.763641 -1.252514 -7.987658
v 13.186142 0.547486 -11.914904
v 12.373138 0.547486 -12.060152
v 13.217392 0.547486 -12.152407
v 13.368889 0.547486 -12.285158
v 14.697136 -1.252514 -8.036409
v 14.544388 -1.251614 -8.110155
v 13.529388 0.547486 -12.306406
v 13.481888 0.547486 -13.612154
v 14.623642 -1.252514 -8.077402
v 14.460640 -1.251614 -8.134157
v 13.791138 0.547486 -6.789904
v 13.799141 0.547486 -6.830156
v 13.777885 0.547486 -6.751154
v 13.710136 0.547486 -6.649408
v 13.645142 0.547486 -6.599657
v 13.679138 0.547486 -6.622408
v 14.544388 -1.252514 -8.110155
v 12.117386 0.547486 -11.780909
v 14.460640 -1.252514 -8.134157
v 13.799141 -1.251614 -6.830156
v 13.801888 0.547486 -6.870905
v 13.199387 0.547486 -12.115656
v 14.331886 0.547486 -13.467905
v 14.246391 0.547486 -13.506403
v 13.645142 0.547486 -12.267153
v 13.710136 0.547486 -12.217409
v 13.679138 0.547486 -12.244402
v 13.777885 -1.251614 -6.990656
v 13.759888 -1.251614 -7.027407
v 14.145386 0.547486 -13.542154
v 13.902641 0.547486 -13.598154
v 13.569641 0.547486 -12.298403
v 13.756889 0.547486 -13.611902
v 13.791138 -1.251614 -6.951906
v 13.801888 -1.251614 -6.870905
v 13.799141 -1.251614 -6.911654
v 13.799141 0.547486 -11.955156
v 13.791138 0.547486 -11.914904
v 15.736885 0.547486 -12.729654
v 13.759888 0.547486 -12.152407
v 13.777885 0.547486 -12.115656
v 15.838890 0.547486 -12.666658
v 15.924637 0.547486 -12.601404
v 16.051636 0.547486 -12.486406
v 16.175392 0.547486 -12.339159
v 16.120888 0.547486 -12.410158
v 13.178139 0.547486 -11.955156
v 13.186142 0.547486 -12.076906
v 13.178139 0.547486 -12.036654
v 13.777885 -1.251614 -6.751154
v 13.791138 -1.251614 -6.789904
v 17.274887 0.547486 -8.343157
v 13.645142 0.547486 -11.724657
v 13.608391 0.547486 -11.706659
v 13.679138 0.547486 -11.747408
v 13.737137 0.547486 -11.805407
v 17.211639 0.547486 -10.646654
v 13.759888 0.547486 -11.839403
v 13.217392 0.547486 -11.839403
v 13.240135 0.547486 -11.805407
v 13.199387 0.547486 -11.876154
v 13.175636 0.547486 -11.995905
v 13.660889 -1.252514 -11.387903
v 13.632385 -1.252514 -11.317904
v 13.632385 -1.251614 -11.317904
v 13.608391 0.547486 -12.285158
v 13.737137 0.547486 -12.186403
v 13.615135 -1.251614 -11.245409
v 13.407639 -1.251614 -11.693407
v 13.615135 -1.252514 -11.245409
v 13.609390 -1.251614 -11.171404
v 13.175636 -1.251614 -10.782656
v 13.609390 -1.252514 -11.171404
v 13.615135 -1.251614 -11.097658
v 13.632385 -1.251614 -11.024904
v -5.860764 0.547036 -7.175158
v 13.615135 -1.252514 -11.097658
v 13.660889 -1.251614 -10.954905
v 13.632385 -1.252514 -11.024904
v 13.777885 0.547486 -11.876154
v 13.791138 0.547486 -12.076906
v 13.799141 0.547486 -12.036654
v 13.700142 -1.251614 -10.888407
v 13.660889 -1.252514 -10.954905
v -7.869675 0.547036 -7.175158
v -5.861145 0.547036 -7.175158
v 13.749138 -1.251614 -10.826906
v 13.700142 -1.252514 -10.888407
v 13.795578 -1.251614 -10.782656
v 13.795578 -1.252514 -10.782656
v 13.749138 -1.252514 -10.826906
v 14.026886 -1.251614 -11.694155
v 13.947639 -1.251614 -11.661409
v 13.777885 -1.251614 -11.876154
v 14.197388 -1.252514 -11.732409
v 14.197388 -1.251614 -11.732409
v 14.285637 -1.251614 -11.737406
v 14.285637 -1.252514 -11.737406
v 0.205635 -1.250714 -10.386408
v 0.205635 0.547036 -10.386408
v 2.800186 -1.250714 -8.309778
v 3.055885 -0.347114 -8.421152
v 13.759888 -1.251614 -11.839403
v 14.110641 -1.252514 -11.718157
v 14.110641 -1.251614 -11.718157
v 14.026886 -1.252514 -11.694155
v 3.012352 -1.250714 -8.625177
v 13.807388 -1.251614 -11.571657
v 13.749138 -1.251614 -11.515909
v 13.645142 -1.251614 -11.724657
v 13.947639 -1.252514 -11.661409
v 2.802231 0.547036 -8.310671
v 13.700142 -1.251614 -11.454409
v 13.608391 -1.251614 -11.706659
v 13.873886 -1.252514 -11.620409
v 13.873886 -1.251614 -11.620409
v 13.569641 -1.251614 -11.693407
v 13.660889 -1.251614 -11.387903
v 13.529388 -1.251614 -11.685404
v 13.807388 -1.252514 -11.571657
v 13.749138 -1.252514 -11.515909
v 13.700142 -1.252514 -11.454409
v 3.012703 0.547036 -8.623545
v 4.300766 0.547036 -8.623545
v 5.021484 0.547036 -11.368555
v 14.373886 -1.251614 -11.732409
v 14.373886 -1.252514 -11.732409
v 7.603142 -0.347114 -8.416407
v 14.871140 -1.251614 -10.888407
v 17.078392 -1.251614 -10.782656
v 14.821892 -1.251614 -10.826906
v 14.775444 -1.252514 -10.782656
v 14.775444 -1.251614 -10.782656
v -14.263000 -1.250714 -10.386408
v -14.265472 0.547036 -10.386408
v 14.821892 -1.252514 -10.826906
v 14.871140 -1.252514 -10.888407
v -13.074135 0.547036 -11.358080
v -13.073616 -1.250714 -11.356470
v 4.967209 -1.250714 -11.366922
v -13.229256 -1.250714 -11.234209
v 14.910141 -1.252514 -10.954905
v 14.910141 -1.251614 -10.954905
v 4.310783 -1.250714 -8.625177
v 14.938637 -1.252514 -11.024904
v 14.938637 -1.251614 -11.024904
v 14.955887 -1.252514 -11.097658
v 14.955887 -1.251614 -11.097658
v 14.961639 -1.251614 -11.171404
v 7.591187 0.547036 -8.620111
v 14.961639 -1.252514 -11.171404
v 14.955887 -1.252514 -11.245409
v 14.955887 -1.251614 -11.245409
v 7.807877 0.547036 -8.301912
v 13.529388 -1.251614 -12.306406
v 14.938637 -1.252514 -11.317904
v 14.938637 -1.251614 -11.317904
v 8.319832 0.547036 -7.465418
v 8.310638 -0.347114 -7.260408
v 14.910141 -1.251614 -11.387903
v 16.175392 -1.251614 -12.339159
v 14.871140 -1.251614 -11.454409
v 7.591087 -1.250714 -8.621744
v 14.910141 -1.252514 -11.387903
v 13.096138 -1.251614 -13.405909
v 13.569641 -1.251614 -12.298403
v 14.821892 -1.251614 -11.515909
v 15.955635 -1.251614 -12.575403
v 7.809525 -1.250714 -8.300989
v 14.871140 -1.252514 -11.454409
v 14.821892 -1.252514 -11.515909
v 8.319901 -1.250714 -7.467073
v 14.697136 -1.251614 -11.620409
v 15.736885 -1.251614 -12.729654
v 14.763641 -1.251614 -11.571657
v 14.763641 -1.252514 -11.571657
v 14.623642 -1.251614 -11.661409
v 14.697136 -1.252514 -11.620409
v 11.216385 -1.251614 -7.372904
v 11.415886 -1.251614 -7.361155
v 14.544388 -1.251614 -11.694155
v 11.612137 -1.251614 -7.332155
v 14.623642 -1.252514 -11.661409
v 14.460640 -1.251614 -11.718157
v 11.801392 -1.251614 -7.289156
v 11.961891 -1.251614 -7.189409
v 14.544388 -1.252514 -11.694155
v 14.460640 -1.252514 -11.718157
v 11.216385 -0.881455 -7.372904
v 11.030388 -1.251614 -7.365641
v 11.343384 -0.850616 -7.365427
v 11.415886 -0.832242 -7.361155
v 11.030388 -1.136495 -7.431871
v 11.030388 -1.250714 -7.458414
v 11.612137 -0.707464 -7.332155
v 11.801392 -0.522449 -7.289156
v 11.866806 -0.347114 -7.248499
v 11.852592 -0.385514 -7.257334
v 12.117386 0.547486 -7.060656
v 12.117386 -1.251614 -7.060656
v 12.255386 -1.251614 -6.926653
v 10.905334 -1.250714 -7.458414
v 11.030388 -0.846986 -7.365641
v 10.320137 -0.347114 -7.253679
v 11.030388 0.547486 -7.365641
v 11.216385 0.185893 -7.372904
v 11.216385 0.547486 -7.372904
v 11.415886 0.547486 -7.361155
v 11.343384 0.155131 -7.365427
v 11.415886 0.136802 -7.361155
v 11.030388 0.547036 -7.456736
v 11.030388 0.440295 -7.431871
v 11.852592 -0.308810 -7.257334
v 11.612137 0.012336 -7.332155
v 10.913231 0.547036 -7.456736
v 11.030388 0.151510 -7.365641
v 11.961891 0.547486 -7.189409
v 13.791138 -1.251614 -11.914904
v 13.799141 -1.251614 -11.955156
v 11.030388 0.547486 -10.809221
v 11.030388 -1.250714 -10.395876
v 13.178139 -1.251614 -11.955156
v 13.186142 -1.251614 -11.914904
v 13.175636 -1.251614 -11.995905
v 13.178139 -1.251614 -12.036654
v 11.612137 0.547486 -7.332155
v 11.801392 -0.172217 -7.289156
v 11.801392 0.547486 -7.289156
v 12.255386 0.547486 -6.926653
v 12.373138 -1.251614 -6.781404
v 13.368889 -1.251614 -6.581659
v 13.407639 -1.251614 -6.568407
v 13.010391 -1.251614 -5.634653
v 11.030388 0.547036 -11.367922
v 13.529388 0.547486 -6.560404
v 13.737137 -1.251614 -11.805407
v 13.336388 0.547486 -5.255907
v 13.710136 0.547486 -11.774408
v 13.136139 -1.251614 -5.385408
v 13.185638 -1.251614 -5.339655
v 13.136139 0.547486 -5.385408
v 13.096138 -1.251614 -5.435656
v 13.481888 0.547486 -5.229403
v 13.401642 0.547486 -5.237909
v 12.826385 -1.251614 -6.029657
v 13.267136 -1.251614 -11.774408
v 13.267136 0.547486 -11.774408
v 13.298141 0.547486 -11.747408
v 13.240135 -1.251614 -11.805407
v 13.217392 -1.251614 -11.839403
v 13.710136 -1.251614 -12.217409
v 13.679138 -1.251614 -12.244402
v 14.331886 -1.251614 -13.467905
v 13.096138 0.547486 -5.435656
v 13.185638 0.547486 -5.339655
v 13.250137 0.547486 -5.296160
v 13.066887 0.547486 -5.488405
v 13.010391 0.547486 -5.634653
v 13.759888 -1.251614 -12.152407
v 13.777885 -1.251614 -12.115656
v 13.791138 -1.251614 -12.076906
v 13.799141 -1.251614 -12.036654
v 13.066887 -1.251614 -5.488405
v 13.801888 -1.251614 -11.995905
v 12.826385 0.547486 -6.029657
v 13.186142 -1.251614 -6.789904
v 13.178139 -1.251614 -6.830156
v 13.332138 -1.251614 -6.599657
v 12.613640 -1.251614 -6.412409
v 13.178139 -1.251614 -6.911654
v 13.447891 -1.251614 -6.560404
v 13.488640 -1.251614 -6.557909
v 13.368889 0.547486 -6.581659
v 13.186142 -1.251614 -12.076906
v 12.613640 0.547486 -6.412409
v 13.199387 -1.251614 -12.115656
v 13.240135 0.547486 -6.680407
v 13.217392 0.547486 -6.714403
v 13.199387 0.547486 -6.751154
v 12.373138 0.547486 -6.781404
v 13.186142 0.547486 -6.789904
v 13.488640 0.547486 -7.184153
v 13.700142 0.547486 -7.870409
v 13.447891 0.547486 -7.181406
v 13.710136 -1.251614 -11.774408
v 13.178139 0.547486 -6.911654
v 13.186142 0.547486 -6.951906
v 13.178139 0.547486 -6.830156
v 13.175636 0.547486 -6.870905
v 13.777885 0.547486 -6.990656
v 13.267136 0.547486 -7.092409
v 13.240135 0.547486 -7.061403
v 13.332138 0.547486 -7.142153
v 13.298141 0.547486 -7.119410
v 13.368889 0.547486 -7.160158
v 13.407639 0.547486 -7.173403
v 13.199387 -1.251614 -11.876154
v 13.488640 0.547486 -6.557909
v 13.791138 0.547486 -6.951906
v 13.332138 0.547486 -6.599657
v 13.298141 0.547486 -6.622408
v 13.267136 0.547486 -6.649408
v 14.255386 -1.251614 -13.502909
v 13.645142 -1.251614 -12.267153
v 14.154892 -1.251614 -13.538904
v 13.066887 -1.251614 -13.353159
v 13.407639 -1.251614 -12.298403
v 13.447891 0.547486 -6.560404
v 13.407639 0.547486 -6.568407
v 15.808640 -1.251614 -12.687159
v 13.737137 -1.251614 -12.186403
v 13.199387 0.547486 -6.990656
v 13.217392 0.547486 -7.027407
v 13.569641 0.547486 -7.173403
v 13.529388 0.547486 -7.181406
v 13.608391 -1.251614 -12.285158
v 13.608391 -1.251614 -7.160158
v 13.608391 0.547486 -7.160158
v 13.569641 -1.251614 -7.173403
v 13.799141 0.547486 -6.911654
v 13.801888 0.547486 -11.995905
v 13.529388 -1.251614 -7.181406
v 13.679138 -1.251614 -11.747408
v 13.332138 -1.251614 -11.724657
v 13.298141 -1.251614 -11.747408
v 13.737137 0.547486 -7.061403
v 13.710136 0.547486 -7.092409
v 13.679138 0.547486 -7.119410
v 13.645142 0.547486 -7.142153
v 13.759888 0.547486 -7.027407
v 13.240135 -1.251614 -7.061403
v 13.267136 -1.251614 -7.092409
v 13.332138 -1.251614 -7.142153
v 13.368889 -1.251614 -7.160158
v 13.267136 -1.251614 -6.649408
v 13.298141 -1.251614 -6.622408
v 13.240135 -1.251614 -6.680407
v 13.217392 -1.251614 -6.714403
v 13.199387 -1.251614 -6.751154
v 13.298141 -1.251614 -7.119410
v 13.217392 -1.251614 -7.027407
v 13.199387 -1.251614 -6.990656
v 13.186142 -1.251614 -6.951906
v 13.175636 -1.251614 -6.870905
v 13.407639 -1.251614 -7.173403
v 17.274887 0.547486 -10.498407
v 13.737137 -1.251614 -7.061403
v 11.030388 -1.252514 -10.782656
v 13.710136 -1.251614 -7.092409
v 13.679138 -1.251614 -7.119410
v 13.645142 -1.251614 -7.142153
v 19.015388 -1.251614 -9.887407
v 18.562386 -1.251614 -10.050158
v 18.736633 -1.251614 -10.115656
v 19.069633 -1.251614 -9.834658
v 19.148636 -1.251614 -9.726908
v 19.184387 -1.251614 -9.658403
v 19.217636 -1.251614 -9.573153
v -13.572906 -1.250714 -7.849329
v -13.073586 -1.250714 -7.467394
v -13.139862 -0.347114 -7.262903
v -15.761368 -0.347114 -9.367655
v -13.569450 0.547036 -7.844645
v -13.074104 0.547036 -7.465792
v -11.896790 0.547036 -7.510965
v -11.899834 -1.250714 -7.512430
v 18.376633 0.547486 -8.829653
v 18.185135 0.547486 -10.002153
v 18.185135 0.547486 -8.839159
v -14.572617 -0.347114 -10.386408
v -13.139610 -0.347114 -11.561655
v 17.995132 0.547486 -8.819902
v 17.812386 0.547486 -10.069658
v 17.812386 0.547486 -8.771906
v -13.228546 0.547036 -11.236826
v 17.643639 0.547486 -8.697405
v -9.001862 -0.347114 -5.735407
v -11.511116 -0.347114 -5.735407
v -11.401932 -1.250714 -5.889200
v -9.111046 -1.250714 -5.889200
v 18.376633 0.547486 -10.011904
v -9.110191 0.547036 -5.887995
v 17.995132 0.547486 -10.021654
v -11.402786 0.547036 -5.887995
v 17.370392 0.547486 -10.362154
v 17.494637 0.547486 -8.598909
v 17.494637 0.547486 -10.242655
v 19.232384 0.547486 -9.328409
v 19.209633 0.547486 -9.245409
v 19.090637 0.547486 -9.031404
v 19.015388 0.547486 -8.954157
v 18.736633 0.547486 -8.725908
v 18.562386 0.547486 -8.791407
v 19.181137 0.547486 -9.175409
v 18.562386 0.547486 -10.050158
v 18.736633 0.547486 -10.115656
v 19.184387 0.547486 -9.658403
v 19.139885 0.547486 -9.741655
v 19.217636 0.547486 -9.573153
v 19.069633 0.547486 -9.834658
v 19.015388 0.547486 -9.887407
v 19.232384 0.547486 -9.513155
v -5.861145 0.547036 -5.887995
v 17.370392 0.547486 -8.479403
v -11.511116 -0.347114 -7.325403
v 17.643639 0.547486 -10.144159
v 11.961891 -1.251614 -11.652155
v -11.471581 -0.674301 -7.175158
v -11.401932 -1.250714 -7.175158
v 11.796638 -1.251614 -11.545908
v 11.612892 -1.251614 -11.478655
v -11.471581 -0.020794 -7.175158
v -11.402191 -1.250714 -7.175158
v 11.841171 -0.354088 -11.574541
v 11.843643 -0.347114 -11.576128
v 11.796638 -0.477321 -11.545908
v 11.961891 0.547486 -11.652155
v 11.612892 -0.766772 -11.478655
v 11.416885 -0.899177 -11.447908
v 11.416885 -1.251614 -11.447908
v 11.217636 -0.958435 -11.434153
v 11.217636 -1.251614 -11.434153
v 11.030388 -1.251614 -11.439814
v 11.030388 -0.934170 -11.439814
v -9.111046 -1.250714 -7.175158
v -9.041985 -0.679185 -7.175158
v 11.030388 -1.250714 -11.366251
v -9.110786 -1.250714 -7.175158
v 17.211639 -1.251614 -10.646654
v 11.841171 -0.340159 -11.574541
v 11.217636 0.547486 -11.434153
v 11.416885 0.547486 -11.447908
v 11.217636 0.262667 -11.434153
v 11.030388 0.547486 -11.439814
v 11.030388 0.238459 -11.439814
v 16.023392 -1.251614 -12.514154
v 16.115891 -1.251614 -12.416903
v 11.416885 0.203560 -11.447908
v 13.320137 -1.251614 -13.579905
v 13.369141 -1.251614 -13.595903
v 13.434135 -1.251614 -13.608904
v 14.055138 -1.251614 -13.567156
v 13.765640 -1.251614 -13.611406
v 13.903137 -1.251614 -13.597658
v 13.417885 0.547486 -13.606905
v 13.320137 0.547486 -13.579905
v 13.227386 0.547486 -13.532404
v 11.030388 -1.251614 -10.782656
v 13.198891 -1.251614 -13.512659
v 11.796638 -0.217235 -11.545908
v 11.612892 0.071490 -11.478655
v 13.481888 -1.251614 -13.612154
v 11.796638 0.547486 -11.545908
v 11.612892 0.547486 -11.478655
v 13.488640 0.547486 -11.682909
v 13.529388 0.547486 -11.685404
v 13.569641 0.547486 -11.693407
v 13.407639 0.547486 -11.693407
v 13.447891 0.547486 -11.685404
v 13.368889 0.547486 -11.706659
v 13.332138 0.547486 -11.724657
v 13.447891 -1.251614 -11.685404
v 13.368889 -1.251614 -11.706659
v 13.488640 -1.251614 -11.682909
vn -0.0000 -1.0000 -0.0000
vn 0.6626 0.0008 0.7490
vn 0.6232 -0.0004 0.7821
vn 0.5987 0.0010 0.8010
vn 0.5731 -0.0003 0.8195
vn 0.4998 -0.0000 0.8661
vn 0.5096 0.0004 0.8604
vn 0.7846 -0.0000 0.6200
vn 0.7232 -0.0000 0.6906
vn 0.6756 -0.0000 0.7373
vn -0.7822 -0.0000 0.6231
vn -0.6898 -0.0000 0.7240
vn -0.6899 -0.0000 0.7239
vn -0.5932 -0.0000 0.8051
vn -0.4859 -0.0000 0.8740
vn -0.4858 -0.0000 0.8740
vn -0.3819 -0.0000 0.9242
vn -0.3820 -0.0000 0.9242
vn -0.2728 -0.0000 0.9621
vn -0.0012 0.2053 0.9787
vn -0.0000 1.0000 -0.0000
vn 0.9928 0.1198 0.0010
vn -0.0183 0.2123 0.9770
vn -0.9933 -0.1157 -0.0000
vn -0.9933 -0.1153 0.0009
vn -0.9933 -0.1153 0.0010
vn -0.9932 0.1160 -0.0000
vn 0.8528 -0.0000 0.5222
vn 1.0000 -0.0000 -0.0000
vn -0.1648 -0.0000 0.9863
vn -0.1649 -0.0000 0.9863
vn -0.0538 -0.0000 0.9986
vn 0.0538 -0.0000 0.9986
vn -0.9933 0.1156 0.0010
vn -0.9262 -0.0000 -0.3771
vn -0.9728 -0.0000 -0.2315
vn -0.7768 -0.0000 -0.6297
vn 0.9933 -0.1157 0.0009
vn -0.6966 -0.0000 -0.7174
vn -0.8378 -0.0000 -0.5460
vn -0.9970 -0.0000 -0.0774
vn -0.0000 -0.0000 1.0000
vn -0.9970 -0.0000 0.0777
vn -0.9970 -0.0000 0.0776
vn -0.9730 -0.0000 0.2307
vn -0.9262 -0.0000 0.3771
vn -0.8611 -0.0000 0.5084
vn -0.8612 -0.0000 0.5083
vn -0.9328 -0.0000 -0.3603
vn -0.0565 -0.0000 -0.9984
vn -0.1621 -0.0000 -0.9868
vn -0.9065 -0.0000 -0.4223
vn -0.2755 -0.0000 -0.9613
vn -0.3819 -0.0000 -0.9242
vn -0.3820 -0.0000 -0.9242
vn -0.7313 0.0007 -0.6820
vn -0.4858 -0.0000 -0.8740
vn -0.4858 -0.0000 -0.8741
vn 0.4107 -0.0000 0.9118
vn 0.4022 -0.0005 0.9155
vn -0.5913 -0.0000 -0.8065
vn -0.5912 -0.0000 -0.8065
vn -0.8741 -0.0000 -0.4858
vn 0.3005 -0.0000 0.9538
vn -0.6914 -0.0000 -0.7225
vn -0.6915 -0.0000 -0.7224
vn 0.3064 0.0006 0.9519
vn 0.2095 -0.0000 0.9778
vn -0.7822 -0.0000 -0.6231
vn 0.2257 0.0012 0.9742
vn 0.1659 -0.0002 0.9861
vn -0.8612 -0.0000 -0.5083
vn 0.1122 0.0019 0.9937
vn 0.0834 -0.0000 0.9965
vn 0.4651 -0.0000 0.8852
vn 0.0565 -0.0000 -0.9984
vn 0.1648 -0.0000 0.9863
vn 0.2729 -0.0000 0.9621
vn 0.2728 -0.0000 0.9621
vn 0.3819 -0.0000 0.9242
vn 0.3820 -0.0000 0.9242
vn 0.4872 -0.0000 0.8733
vn 0.4871 -0.0000 0.8733
vn 0.5931 -0.0000 0.8051
vn 0.6898 -0.0000 0.7240
vn 0.6899 -0.0000 0.7239
vn 0.9932 -0.1161 -0.0000
vn -0.0000 -0.0007 1.0000
vn 0.7806 -0.0000 0.6250
vn 0.8626 -0.0000 0.5059
vn -0.0000 -0.2616 0.9652
vn 0.9262 -0.0000 0.3770
vn 0.9730 -0.0000 0.2307
vn 0.9970 -0.0000 0.0778
vn -0.0000 -0.0000 -1.0000
vn -0.0000 0.2622 0.9650
vn 0.9970 -0.0000 -0.0775
vn 0.9728 -0.0000 -0.2315
vn 0.9262 -0.0000 -0.3770
vn 0.8626 -0.0000 -0.5059
vn 0.8626 -0.0000 -0.5058
vn 0.7806 -0.0000 -0.6250
vn 0.6914 -0.0000 -0.7225
vn 0.6915 -0.0000 -0.7224
vn 0.5912 -0.0000 -0.8065
vn 0.4871 -0.0000 -0.8734
vn 0.4871 -0.0000 -0.8733
vn 0.3820 -0.0000 -0.9242
vn 0.3819 -0.0000 -0.9242
vn 0.2755 -0.0000 -0.9613
vn 0.1621 -0.0000 -0.9868
vn -0.9977 -0.0000 -0.0672
vn -0.9808 -0.0000 -0.1950
vn -0.6568 -0.0000 -0.7540
vn -1.0000 -0.0000 -0.0000
vn 0.9932 0.1160 0.0009
vn -0.9977 -0.0000 0.0673
vn -0.0000 -0.0008 1.0000
vn -0.0000 -0.0017 1.0000
vn 0.8381 -0.1734 0.5173
vn 0.8185 -0.1638 0.5506
vn -0.3818 -0.0000 -0.9242
vn 0.8380 0.1738 0.5172
vn -0.4859 -0.0000 -0.8740
vn 0.8185 0.1642 0.5506
vn 0.8312 -0.0000 0.5560
vn -0.0000 0.2208 0.9753
vn -0.0010 0.2221 0.9750
vn -0.0000 -0.2202 0.9754
vn -0.0010 -0.2216 0.9751
vn -0.8209 0.1164 0.5590
vn -0.8460 0.1274 0.5178
vn -0.8209 -0.1161 0.5591
vn -0.8460 -0.1271 0.5178
vn 0.4872 -0.0000 -0.8733
vn 0.3818 -0.0000 -0.9242
vn 0.0390 -0.0000 0.9992
vn -0.0588 -0.0000 0.9983
vn -0.1462 -0.0000 0.9893
vn -0.2216 -0.0000 0.9751
vn -0.5278 -0.0000 0.8493
vn -0.5279 -0.0000 0.8493
vn -0.6378 -0.0000 0.7702
vn -0.6966 -0.0000 0.7174
vn -0.0000 -0.2263 0.9741
vn -0.0000 -0.2264 0.9740
vn -0.0000 -0.2263 0.9740
vn -0.0033 -0.2230 0.9748
vn -0.0032 -0.2230 0.9748
vn -0.0031 -0.2231 0.9748
vn -0.0000 0.2269 0.9739
vn -0.0033 0.2235 0.9747
vn -0.0032 0.2235 0.9747
vn -0.0033 0.2236 0.9747
vn -0.9462 -0.0000 -0.3236
vn 0.9808 -0.0000 -0.1950
vn 0.9981 -0.0000 -0.0613
vn 0.9981 -0.0000 0.0613
vn -0.5278 -0.0000 0.8494
vn -0.7768 -0.0000 0.6297
vn 0.7541 -0.0000 0.6567
vn 0.6566 -0.0000 0.7542
vn 0.5562 -0.0000 0.8311
vn 0.4400 -0.0000 0.8980
vn 0.3234 -0.0000 0.9463
vn -0.8981 -0.0000 -0.4399
vn -0.8311 -0.0000 -0.5561
vn -0.8311 -0.0000 -0.5562
vn -0.3944 -0.0000 0.9189
vn -0.7541 -0.0000 -0.6568
vn -0.6788 -0.0000 0.7343
vn -0.7824 -0.0000 0.6228
vn 0.0009 -0.0000 1.0000
vn -0.5562 -0.0000 -0.8311
vn -0.1054 0.0008 0.9944
vn -0.0819 -0.0000 0.9966
vn -0.2523 -0.0005 0.9677
vn -0.2659 -0.0000 0.9640
vn 0.6567 -0.0000 -0.7541
vn 0.7541 -0.0000 -0.6568
vn 0.8311 -0.0000 -0.5561
vn -0.4229 0.0012 0.9062
vn -0.5591 -0.0000 0.8291
vn -0.5435 -0.0008 0.8394
vn -0.8745 -0.0000 0.4850
vn -0.8745 -0.0000 0.4849
vn -0.9065 -0.0000 0.4223
vn -0.9328 -0.0000 0.3604
vn -0.5562 -0.0000 0.8311
vn -0.8378 -0.0000 0.5460
vn -0.8741 -0.0000 0.4858
vn -0.8981 -0.0000 0.4398
vn -0.9462 -0.0000 0.3236
vn -0.3234 -0.0000 0.9463
vn -0.8981 -0.0000 -0.4398
vn -0.7541 -0.0000 0.6567
vn 0.1950 -0.0000 0.9808
vn 0.0673 -0.0000 0.9977
vn -0.9808 -0.0000 0.1950
vn -0.6567 -0.0000 0.7541
vn -0.9977 -0.0000 -0.0673
vn -0.9977 -0.0000 0.0672
vn 0.9808 -0.0000 0.1950
vn 0.9463 -0.0000 0.3234
vn 0.9462 -0.0000 0.3235
vn 0.8980 -0.0000 0.4399
vn 0.8311 -0.0000 0.5561
vn -0.6568 -0.0000 -0.7541
vn -0.1950 -0.0000 0.9808
vn 0.5562 -0.0000 -0.8311
vn 0.8980 -0.0000 -0.4399
vn -0.6567 -0.0000 0.7542
vn 0.9462 -0.0000 -0.3235
vn -0.0673 -0.0000 0.9977
vn -0.4400 -0.0000 0.8980
vn -0.8311 -0.0000 0.5561
vn -0.8311 -0.0000 0.5562
vn -0.8981 -0.0000 0.4399
vn 0.8980 -0.0000 0.4400
vn 0.8312 -0.0000 -0.5560
vn -0.4398 -0.0000 -0.8981
vn 0.8980 -0.0000 -0.4400
vn 0.9463 -0.0000 -0.3234
vn -0.5560 -0.0000 0.8312
vn -0.6568 -0.0000 0.7541
vn -0.6568 -0.0000 0.7540
vn 0.6567 -0.0000 0.7541
vn 0.5560 -0.0000 0.8312
vn -0.3236 -0.0000 -0.9462
vn -0.5928 -0.2189 0.7750
vn -0.6132 -0.2018 0.7637
vn -0.1950 -0.0000 -0.9808
vn -0.6131 0.2023 0.7637
vn -0.5927 0.2194 0.7750
vn -0.6028 -0.2183 -0.7674
vn -0.6197 -0.2123 -0.7556
vn -0.0006 0.2220 -0.9750
vn -0.6026 0.2189 -0.7674
vn -0.6196 0.2128 -0.7555
vn -0.0000 -0.1678 0.9858
vn 0.9927 0.1203 -0.0000
vn -0.0000 0.1682 0.9857
vn -0.0611 -0.0000 -0.9981
vn 0.0611 -0.0000 -0.9981
vn 0.1950 -0.0000 -0.9808
vn 0.9932 0.1164 -0.0000
vn 0.3236 -0.0000 -0.9462
vn 0.9198 -0.0000 0.3924
vn 0.8189 -0.0000 0.5740
vn 0.6932 -0.0000 0.7207
vn 0.4398 -0.0000 -0.8981
vn 0.5514 -0.0000 0.8342
vn 0.4039 -0.0000 0.9148
vn 0.2540 -0.0000 0.9672
vn 0.0374 -0.2180 0.9752
vn 0.1008 -0.0000 0.9949
vn -0.0496 -0.0000 0.9988
vn 0.0374 0.2185 0.9751
vn -0.2017 -0.0000 0.9795
vn 0.6932 -0.0000 -0.7207
vn 0.8189 -0.0000 -0.5740
vn 0.0056 -0.2050 0.9787
vn -0.0509 -0.0000 -0.9987
vn -0.0508 -0.0000 -0.9987
vn 0.1021 -0.0000 -0.9948
vn 0.2541 -0.0000 -0.9672
vn 0.4039 -0.0000 -0.9148
vn 0.5514 -0.0000 -0.8342
vn 0.6335 -0.0000 0.7737
vn -0.3519 -0.0000 0.9361
vn 0.6971 -0.0000 0.7169
vn 0.7163 0.0011 0.6978
vn -0.9928 -0.1200 -0.0000
vn 0.8065 -0.0014 0.5913
vn 0.8753 0.0058 0.4836
vn 0.8467 0.0011 0.5321
vn -0.9927 0.1203 -0.0000
vn 0.9262 -0.0006 0.3771
vn 0.9267 -0.0007 0.3758
vn 0.9711 0.0013 0.2386
vn -0.9928 -0.1195 0.0010
vn 0.9644 -0.0000 0.2644
vn 0.9932 -0.0000 0.1163
vn -0.3519 -0.0000 -0.9361
vn 0.0056 0.2055 0.9786
vn 0.6335 -0.0000 -0.7737
vn -0.2017 -0.0000 -0.9794
vn -0.5405 0.0001 -0.8413
vn -0.5408 -0.0000 -0.8411
vn -0.6378 -0.0000 -0.7702
vn 0.9932 -0.0000 -0.1163
vn 0.9711 -0.0000 -0.2387
vn -0.3437 -0.0000 -0.9391
vn 0.9835 -0.0020 -0.1810
vn -0.9928 0.1198 0.0010
vn -0.1550 -0.0000 -0.9879
vn 0.9317 -0.0000 -0.3633
vn 0.9316 -0.0000 -0.3634
vn 0.8819 0.0004 -0.4714
vn -0.0689 -0.0000 -0.9976
vn 0.8865 -0.0000 -0.4627
vn 0.8065 -0.0009 -0.5913
vn 0.0302 -0.0000 -0.9995
vn 0.7979 -0.0000 -0.6027
vn 0.9928 -0.1200 -0.0000
vn 0.6971 -0.0000 -0.7169
vn 0.6972 -0.0000 -0.7169
vn 0.9928 -0.1195 0.0009
vn 0.9928 -0.1195 0.0010
vn 0.0001 -0.2264 -0.9740
vn 0.0002 -0.2264 -0.9740
vn 0.0001 -0.2263 -0.9740
vn -0.0006 -0.2215 -0.9752
vn -0.0005 -0.2216 -0.9751
vn -0.0000 -0.0004 1.0000
vn -0.0000 0.0004 1.0000
vn -0.0000 0.0002 1.0000
vn -0.0183 -0.2118 0.9771
vn -0.5403 -0.0001 -0.8415
vn 0.8528 -0.0000 -0.5222
vn 0.9198 -0.0000 -0.3924
vn -0.0012 -0.2048 0.9788
vn 0.7932 -0.0000 -0.6089
vn 0.0001 0.2269 -0.9739
vn 0.4651 -0.0000 -0.8852
vn 0.5096 -0.0000 -0.8604
vn 0.5254 0.0009 -0.8508
vn 0.6052 -0.0011 -0.7961
vn 0.6056 -0.0011 -0.7958
vn 0.6706 0.0009 -0.7418
vn -0.0005 0.2223 -0.9750
vn 0.6712 0.0009 -0.7413
vn 0.7246 -0.0007 -0.6892
vn 0.7403 0.0005 -0.6723
vn 0.7941 0.0001 -0.6078
vn -0.8745 -0.0000 -0.4849
vn -0.8524 0.0015 -0.5229
vn -0.7824 -0.0007 -0.6228
vn -0.6691 -0.0009 -0.7431
vn -0.6158 0.0011 -0.7879
vn -0.4850 -0.0019 -0.8745
vn -0.4558 -0.0000 -0.8901
vn -0.3104 -0.0000 -0.9506
vn 0.0001 0.2270 -0.9739
vn -0.2662 0.0013 -0.9639
vn -0.1961 -0.0007 -0.9806
vn -0.0817 0.0004 -0.9967
vn -0.0679 -0.0000 -0.9977
vn 0.0026 -0.0003 -1.0000
vn 0.0009 -0.0000 -1.0000
vn 0.0939 -0.0002 -0.9956
vn 0.0995 0.0002 -0.9950
vn 0.1967 0.0038 -0.9804
vn 0.2248 -0.0002 -0.9744
vn 0.2725 -0.0003 -0.9622
vn 0.3372 -0.0001 -0.9414
vn 0.3337 0.0001 -0.9427
vn 0.4161 -0.0000 -0.9093
vn 0.4106 0.0003 -0.9118
s 0
usemtl Material.003
f 1//1 2//1 3//1
f 4//2 5//2 6//2
f 4//3 7//3 5//3
f 4//4 8//4 7//4
f 8//5 9//5 7//5
f 9//6 10//6 11//6
f 9//7 8//7 10//7
f 2//1 12//1 11//1
f 11//1 3//1 2//1
f 13//1 14//1 15//1
f 16//8 17//8 18//8
f 16//8 18//8 19//8
f 6//9 20//9 17//9
f 6//9 17//9 16//9
f 5//10 20//10 6//10
f 21//11 22//11 23//11
f 21//12 24//12 25//12
f 21//13 25//13 22//13
f 24//14 26//14 27//14
f 24//14 27//14 25//14
f 26//15 28//15 29//15
f 26//16 29//16 27//16
f 28//17 30//17 31//17
f 28//18 31//18 29//18
f 30//19 32//19 33//19
f 30//19 33//19 31//19
f 34//20 35//20 36//20
f 37//21 38//21 35//21
f 39//22 40//22 36//22
f 41//21 42//21 43//21
f 44//21 36//21 42//21
f 43//21 42//21 36//21
f 39//21 36//21 44//21
f 45//1 46//1 47//1
f 34//23 48//23 35//23
f 46//1 49//1 50//1
f 48//24 51//24 52//24
f 53//24 54//24 51//24
f 55//23 35//23 48//23
f 56//25 51//25 57//25
f 48//26 57//26 51//26
f 55//21 58//21 37//21
f 37//21 35//21 55//21
f 52//27 59//27 60//27
f 48//27 52//27 60//27
f 61//28 19//28 18//28
f 62//29 63//29 64//29
f 62//29 64//29 65//29
f 66//29 67//29 68//29
f 18//1 67//1 69//1
f 67//1 70//1 69//1
f 71//1 72//1 73//1
f 74//1 73//1 72//1
f 72//1 75//1 74//1
f 76//1 77//1 73//1
f 78//1 76//1 73//1
f 77//1 71//1 73//1
f 79//1 80//1 81//1
f 82//21 83//21 84//21
f 85//21 86//21 87//21
f 86//21 84//21 87//21
f 83//21 87//21 84//21
f 32//30 88//30 89//30
f 32//31 89//31 33//31
f 90//1 91//1 11//1
f 88//32 92//32 93//32
f 88//32 93//32 89//32
f 94//1 95//1 96//1
f 95//1 70//1 96//1
f 92//33 97//33 98//33
f 92//33 98//33 93//33
f 60//34 99//34 55//34
f 60//34 55//34 48//34
f 94//1 96//1 100//1
f 101//35 102//35 103//35
f 104//1 100//1 96//1
f 96//1 105//1 104//1
f 106//1 103//1 107//1
f 104//1 105//1 108//1
f 108//1 109//1 110//1
f 102//36 111//36 107//36
f 102//36 107//36 103//36
f 112//37 113//37 114//37
f 115//38 116//38 117//38
f 96//1 70//1 67//1
f 118//39 112//39 114//39
f 119//1 96//1 67//1
f 120//1 119//1 67//1
f 65//1 121//1 14//1
f 122//40 74//40 113//40
f 14//1 123//1 109//1
f 124//1 125//1 96//1
f 126//1 124//1 96//1
f 119//1 126//1 96//1
f 110//1 109//1 123//1
f 127//1 128//1 107//1
f 111//41 129//41 127//41
f 111//41 127//41 107//41
f 130//42 67//42 106//42
f 129//43 131//43 132//43
f 129//44 132//44 127//44
f 133//1 134//1 14//1
f 123//1 14//1 13//1
f 134//1 15//1 14//1
f 135//1 133//1 14//1
f 136//1 137//1 14//1
f 137//1 135//1 14//1
f 138//1 139//1 140//1
f 106//1 67//1 141//1
f 141//1 142//1 106//1
f 131//45 143//45 140//45
f 131//45 140//45 132//45
f 143//46 144//46 138//46
f 143//46 138//46 140//46
f 144//47 145//47 23//47
f 144//48 23//48 138//48
f 145//11 21//11 23//11
f 86//49 81//49 84//49
f 146//1 147//1 148//1
f 149//1 150//1 146//1
f 151//1 150//1 149//1
f 152//1 106//1 142//1
f 153//50 142//50 141//50
f 153//50 141//50 154//50
f 148//1 147//1 155//1
f 156//1 1//1 3//1
f 153//51 157//51 152//51
f 153//51 152//51 142//51
f 158//52 84//52 81//52
f 158//52 81//52 73//52
f 157//53 159//53 160//53
f 157//53 160//53 152//53
f 161//21 162//21 163//21
f 163//21 162//21 164//21
f 165//1 166//1 106//1
f 159//54 167//54 168//54
f 159//55 168//55 160//55
f 85//56 169//56 170//56
f 171//1 106//1 166//1
f 167//57 172//57 165//57
f 167//58 165//58 168//58
f 161//59 3//59 173//59
f 161//60 155//60 3//60
f 172//61 174//61 166//61
f 172//62 166//62 165//62
f 122//63 158//63 73//63
f 122//63 73//63 74//63
f 155//64 163//64 148//64
f 175//65 171//65 166//65
f 175//66 166//66 174//66
f 155//67 161//67 163//67
f 148//68 163//68 164//68
f 176//69 177//69 171//69
f 176//69 171//69 175//69
f 148//70 164//70 146//70
f 106//1 177//1 178//1
f 103//1 106//1 178//1
f 164//71 149//71 146//71
f 101//72 178//72 177//72
f 101//72 177//72 176//72
f 164//73 179//73 149//73
f 179//74 151//74 149//74
f 103//35 178//35 101//35
f 141//1 67//1 180//1
f 11//75 10//75 173//75
f 11//75 173//75 3//75
f 154//76 141//76 180//76
f 154//76 180//76 181//76
f 182//1 183//1 11//1
f 184//77 98//77 185//77
f 97//77 185//77 98//77
f 186//21 158//21 187//21
f 7//1 9//1 183//1
f 188//21 158//21 189//21
f 185//78 190//78 90//78
f 185//79 90//79 184//79
f 183//1 191//1 7//1
f 140//1 192//1 132//1
f 190//80 193//80 91//80
f 190//81 91//81 90//81
f 194//1 195//1 151//1
f 5//1 7//1 191//1
f 193//82 196//82 197//82
f 193//83 197//83 91//83
f 155//1 198//1 3//1
f 53//1 117//1 199//1
f 56//1 57//1 53//1
f 116//1 199//1 117//1
f 196//84 200//84 182//84
f 196//84 182//84 197//84
f 201//1 195//1 202//1
f 203//1 195//1 194//1
f 200//85 204//85 183//85
f 200//86 183//86 182//86
f 20//1 5//1 191//1
f 205//87 206//87 207//87
f 53//88 51//88 56//88
f 208//1 18//1 191//1
f 199//42 116//42 115//42
f 191//89 183//89 209//89
f 204//89 209//89 183//89
f 210//1 18//1 208//1
f 209//90 211//90 208//90
f 209//90 208//90 191//90
f 212//91 213//91 214//91
f 215//91 214//91 213//91
f 115//91 117//91 214//91
f 211//92 216//92 210//92
f 211//92 210//92 208//92
f 212//91 214//91 117//91
f 216//93 217//93 218//93
f 216//93 218//93 210//93
f 217//94 219//94 220//94
f 217//94 220//94 218//94
f 46//95 37//95 49//95
f 221//21 10//21 222//21
f 223//96 224//96 58//96
f 225//97 226//97 220//97
f 225//97 220//97 219//97
f 227//96 224//96 213//96
f 215//96 213//96 224//96
f 58//96 224//96 227//96
f 67//1 226//1 228//1
f 228//1 229//1 67//1
f 225//98 230//98 228//98
f 225//98 228//98 226//98
f 227//21 37//21 58//21
f 229//1 231//1 67//1
f 230//99 232//99 229//99
f 230//99 229//99 228//99
f 212//1 117//1 49//1
f 231//1 233//1 67//1
f 233//1 234//1 67//1
f 232//100 235//100 231//100
f 232//101 231//101 229//101
f 235//102 236//102 233//102
f 235//102 233//102 231//102
f 234//1 237//1 67//1
f 237//1 238//1 67//1
f 239//21 164//21 162//21
f 240//103 234//103 233//103
f 240//104 233//104 236//104
f 112//21 241//21 242//21
f 243//21 187//21 122//21
f 189//21 158//21 186//21
f 244//21 158//21 188//21
f 245//105 237//105 234//105
f 245//105 234//105 240//105
f 238//1 246//1 67//1
f 87//21 247//21 248//21
f 249//106 238//106 237//106
f 249//107 237//107 245//107
f 122//21 187//21 158//21
f 246//1 250//1 67//1
f 251//21 10//21 252//21
f 222//21 10//21 253//21
f 253//21 10//21 251//21
f 254//21 173//21 221//21
f 255//21 173//21 256//21
f 256//21 173//21 254//21
f 257//108 246//108 238//108
f 257//109 238//109 249//109
f 258//39 112//39 118//39
f 180//1 67//1 250//1
f 259//110 250//110 246//110
f 259//110 246//110 257//110
f 242//40 122//40 113//40
f 112//37 242//37 113//37
f 259//111 181//111 250//111
f 180//111 250//111 181//111
f 260//112 252//112 261//112
f 251//113 252//113 260//113
f 243//21 122//21 262//21
f 263//21 264//21 265//21
f 266//21 263//21 267//21
f 82//21 84//21 244//21
f 268//1 269//1 29//1
f 270//21 271//21 272//21
f 247//21 272//21 273//21
f 274//1 268//1 29//1
f 275//1 276//1 31//1
f 277//21 278//21 279//21
f 280//21 281//21 279//21
f 282//21 279//21 278//21
f 283//21 282//21 278//21
f 31//1 33//1 275//1
f 284//21 283//21 278//21
f 260//1 275//1 33//1
f 285//21 286//21 278//21
f 93//1 98//1 11//1
f 287//21 242//21 241//21
f 288//21 242//21 289//21
f 12//1 290//1 11//1
f 290//1 93//1 11//1
f 98//1 184//1 11//1
f 184//1 90//1 11//1
f 291//1 260//1 33//1
f 29//1 31//1 274//1
f 276//1 274//1 31//1
f 33//1 89//1 291//1
f 290//1 291//1 89//1
f 89//1 93//1 290//1
f 91//1 197//1 11//1
f 197//1 182//1 11//1
f 61//21 292//21 293//21
f 293//21 294//21 61//21
f 295//21 293//21 292//21
f 296//21 297//21 298//21
f 299//21 112//21 300//21
f 258//21 300//21 112//21
f 241//21 112//21 301//21
f 256//114 1//114 156//114
f 302//21 242//21 287//21
f 289//21 242//21 302//21
f 262//21 122//21 288//21
f 242//21 288//21 122//21
f 303//35 304//35 305//35
f 272//21 306//21 270//21
f 306//21 265//21 270//21
f 264//21 270//21 265//21
f 267//21 263//21 265//21
f 307//21 263//21 266//21
f 308//1 309//1 305//1
f 304//36 310//36 308//36
f 304//36 308//36 305//36
f 311//1 312//1 308//1
f 310//41 313//41 311//41
f 310//41 311//41 308//41
f 214//42 224//42 207//42
f 223//42 207//42 224//42
f 224//115 214//115 215//115
f 314//1 315//1 312//1
f 316//116 223//116 58//116
f 275//117 261//117 276//117
f 313//43 317//43 314//43
f 313//44 314//44 311//44
f 315//1 318//1 312//1
f 317//45 319//45 315//45
f 317//45 315//45 314//45
f 307//21 280//21 279//21
f 286//21 284//21 278//21
f 298//21 297//21 320//21
f 320//21 297//21 278//21
f 321//21 322//21 279//21
f 263//21 307//21 279//21
f 318//1 323//1 312//1
f 319//46 324//46 318//46
f 319//46 318//46 315//46
f 55//21 325//21 58//21
f 99//21 325//21 55//21
f 326//21 58//21 325//21
f 316//21 58//21 326//21
f 323//1 327//1 312//1
f 324//47 328//47 323//47
f 324//48 323//48 318//48
f 57//1 49//1 117//1
f 117//1 53//1 57//1
f 57//1 50//1 49//1
f 312//95 329//95 330//95
f 329//1 312//1 327//1
f 331//11 327//11 323//11
f 331//11 323//11 328//11
f 331//12 330//12 329//12
f 331//12 329//12 327//12
f 99//42 60//42 325//42
f 326//118 207//118 223//118
f 326//42 223//42 316//42
f 207//42 115//42 214//42
f 207//119 199//119 115//119
f 332//1 333//1 334//1
f 335//50 336//50 337//50
f 335//50 337//50 338//50
f 339//115 49//115 37//115
f 339//115 37//115 340//115
f 212//120 341//120 213//120
f 342//120 213//120 341//120
f 343//1 334//1 333//1
f 335//51 344//51 345//51
f 335//51 345//51 336//51
f 344//53 346//53 332//53
f 344//53 332//53 345//53
f 342//121 341//121 347//121
f 348//1 349//1 350//1
f 346//122 351//122 333//122
f 346//54 333//54 332//54
f 342//123 352//123 213//123
f 349//1 353//1 354//1
f 354//1 350//1 349//1
f 351//124 355//124 356//124
f 351//57 356//57 333//57
f 354//1 353//1 357//1
f 358//1 359//1 353//1
f 352//21 37//21 227//21
f 355//61 360//61 348//61
f 355//62 348//62 356//62
f 341//1 212//1 49//1
f 357//1 353//1 359//1
f 361//65 349//65 348//65
f 361//66 348//66 360//66
f 362//69 353//69 349//69
f 362//69 349//69 361//69
f 347//1 341//1 49//1
f 303//72 358//72 353//72
f 303//72 353//72 362//72
f 227//123 213//123 352//123
f 305//35 358//35 303//35
f 363//125 352//125 342//125
f 75//126 187//126 243//126
f 364//127 363//127 342//127
f 37//21 363//21 340//21
f 364//21 365//21 363//21
f 338//76 337//76 366//76
f 338//76 366//76 367//76
f 368//128 364//128 342//128
f 365//21 340//21 363//21
f 352//21 363//21 37//21
f 49//1 339//1 347//1
f 369//1 370//1 371//1
f 370//95 372//95 373//95
f 374//42 339//42 340//42
f 374//42 340//42 375//42
f 373//1 371//1 370//1
f 373//85 372//85 376//85
f 373//85 376//85 371//85
f 376//89 377//89 369//89
f 376//89 369//89 371//89
f 365//21 378//21 340//21
f 379//1 380//1 339//1
f 374//1 381//1 339//1
f 377//90 382//90 383//90
f 377//90 383//90 369//90
f 342//129 347//129 384//129
f 382//92 385//92 386//92
f 382//92 386//92 383//92
f 342//130 384//130 368//130
f 385//93 387//93 388//93
f 385//93 388//93 386//93
f 370//1 388//1 389//1
f 390//128 364//128 368//128
f 387//94 391//94 389//94
f 387//94 389//94 388//94
f 347//1 380//1 384//1
f 392//97 393//97 389//97
f 392//97 389//97 391//97
f 394//131 390//131 368//131
f 79//1 81//1 395//1
f 392//98 396//98 397//98
f 392//98 397//98 393//98
f 398//132 394//132 399//132
f 368//132 399//132 394//132
f 397//1 400//1 401//1
f 400//1 402//1 401//1
f 384//130 403//130 368//130
f 400//99 397//99 404//99
f 396//99 404//99 397//99
f 405//1 170//1 406//1
f 407//1 408//1 402//1
f 368//133 403//133 409//133
f 404//100 410//100 402//100
f 404//101 402//101 400//101
f 410//102 411//102 407//102
f 410//102 407//102 402//102
f 412//134 399//134 409//134
f 368//134 409//134 399//134
f 413//1 414//1 415//1
f 416//103 415//103 407//103
f 416//104 407//104 411//104
f 417//1 414//1 413//1
f 418//105 413//105 415//105
f 418//105 415//105 416//105
f 419//1 106//1 420//1
f 421//1 414//1 417//1
f 420//1 106//1 422//1
f 423//107 417//107 413//107
f 423//135 413//135 418//135
f 424//1 414//1 421//1
f 422//1 106//1 425//1
f 425//1 106//1 128//1
f 426//1 425//1 128//1
f 427//109 421//109 417//109
f 427//136 417//136 423//136
f 366//1 414//1 424//1
f 428//110 424//110 421//110
f 428//110 421//110 427//110
f 419//137 429//137 430//137
f 428//111 367//111 424//111
f 366//111 424//111 367//111
f 420//138 431//138 419//138
f 432//138 431//138 420//138
f 429//138 419//138 431//138
f 433//115 434//115 430//115
f 420//139 422//139 432//139
f 435//139 432//139 422//139
f 422//140 425//140 435//140
f 436//140 435//140 425//140
f 425//141 426//141 436//141
f 437//142 438//142 426//142
f 439//143 426//143 440//143
f 439//144 440//144 441//144
f 438//145 431//145 432//145
f 438//146 432//146 435//146
f 438//147 435//147 436//147
f 442//146 434//146 433//146
f 443//137 430//137 429//137
f 433//115 430//115 443//115
f 438//142 436//142 426//142
f 437//148 444//148 443//148
f 437//148 443//148 429//148
f 437//149 429//149 431//149
f 437//150 431//150 438//150
f 442//149 433//149 444//149
f 412//148 442//148 444//148
f 399//148 412//148 444//148
f 443//148 444//148 433//148
f 445//137 446//137 447//137
f 448//138 447//138 449//138
f 450//138 448//138 449//138
f 446//138 449//138 447//138
f 445//115 451//115 452//115
f 449//151 453//151 450//151
f 454//151 450//151 453//151
f 451//151 455//151 452//151
f 445//137 456//137 446//137
f 452//115 456//115 445//115
f 453//141 437//141 457//141
f 456//152 444//152 446//152
f 449//153 446//153 444//153
f 437//154 453//154 444//154
f 449//152 444//152 453//152
f 455//152 398//152 444//152
f 456//152 452//152 444//152
f 452//153 455//153 444//153
f 399//152 444//152 398//152
f 430//1 106//1 419//1
f 440//1 426//1 128//1
f 458//113 278//113 459//113
f 278//155 458//155 334//155
f 445//21 447//21 460//21
f 460//115 451//115 445//115
f 106//1 107//1 128//1
f 441//1 440//1 128//1
f 412//1 461//1 442//1
f 461//1 412//1 409//1
f 447//21 448//21 460//21
f 462//156 287//156 463//156
f 241//156 463//156 287//156
f 464//157 302//157 462//157
f 287//157 462//157 302//157
f 302//158 464//158 465//158
f 454//139 466//139 450//139
f 448//139 450//139 466//139
f 467//140 468//140 454//140
f 466//140 454//140 468//140
f 453//142 457//142 467//142
f 457//159 437//159 426//159
f 468//141 467//141 457//141
f 430//115 434//115 106//115
f 130//115 106//115 461//115
f 457//143 426//143 439//143
f 434//115 461//115 106//115
f 439//144 441//144 469//144
f 469//160 441//160 470//160
f 453//151 467//151 454//151
f 187//161 72//161 71//161
f 434//1 442//1 461//1
f 409//1 403//1 461//1
f 71//162 77//162 189//162
f 468//21 460//21 466//21
f 189//163 77//163 76//163
f 448//21 466//21 460//21
f 76//164 78//164 244//164
f 471//1 472//1 473//1
f 78//165 82//165 244//165
f 451//115 460//115 474//115
f 202//1 195//1 203//1
f 455//21 474//21 398//21
f 173//21 255//21 161//21
f 179//21 164//21 239//21
f 239//21 475//21 179//21
f 343//166 298//166 334//166
f 343//167 476//167 298//167
f 296//168 298//168 476//168
f 201//169 202//169 477//169
f 476//170 478//170 296//170
f 479//171 480//171 481//171
f 394//21 398//21 474//21
f 481//172 482//172 479//172
f 151//173 179//173 483//173
f 151//173 483//173 194//173
f 350//174 293//174 295//174
f 484//175 203//175 483//175
f 203//176 194//176 483//176
f 484//177 202//177 203//177
f 484//178 477//178 202//178
f 473//1 485//1 471//1
f 480//1 195//1 201//1
f 486//179 487//179 488//179
f 487//180 486//180 489//180
f 487//180 489//180 300//180
f 300//181 489//181 490//181
f 491//1 492//1 493//1
f 481//21 475//21 494//21
f 495//21 475//21 481//21
f 496//21 475//21 495//21
f 494//21 475//21 497//21
f 484//21 483//21 475//21
f 497//21 475//21 498//21
f 483//21 179//21 475//21
f 499//1 414//1 500//1
f 500//1 414//1 501//1
f 496//182 201//182 477//182
f 480//183 496//183 495//183
f 501//1 414//1 502//1
f 480//184 201//184 496//184
f 480//171 495//171 481//171
f 482//172 481//172 494//172
f 482//185 494//185 503//185
f 497//186 503//186 494//186
f 337//1 336//1 504//1
f 498//187 505//187 485//187
f 498//187 485//187 473//187
f 473//188 503//188 498//188
f 498//188 503//188 497//188
f 477//21 475//21 496//21
f 114//1 113//1 463//1
f 441//1 128//1 470//1
f 464//1 462//1 113//1
f 265//189 492//189 267//189
f 506//1 470//1 507//1
f 508//1 471//1 485//1
f 470//1 506//1 509//1
f 128//1 510//1 470//1
f 511//1 512//1 473//1
f 479//1 195//1 480//1
f 498//21 513//21 505//21
f 113//1 74//1 514//1
f 515//190 470//190 509//190
f 75//1 516//1 74//1
f 509//191 485//191 515//191
f 505//191 515//191 485//191
f 73//1 81//1 78//1
f 517//21 518//21 515//21
f 518//21 519//21 515//21
f 520//21 515//21 521//21
f 520//160 469//160 470//160
f 520//190 470//190 515//190
f 337//1 414//1 366//1
f 333//1 356//1 476//1
f 256//174 156//174 198//174
f 522//21 523//21 524//21
f 525//1 476//1 356//1
f 356//1 348//1 525//1
f 526//21 527//21 520//21
f 528//21 529//21 520//21
f 334//1 458//1 332//1
f 268//192 530//192 269//192
f 531//21 439//21 532//21
f 533//21 439//21 534//21
f 535//21 523//21 533//21
f 536//21 523//21 535//21
f 486//1 312//1 489//1
f 162//21 161//21 255//21
f 477//21 484//21 475//21
f 10//21 221//21 173//21
f 490//1 114//1 537//1
f 538//21 498//21 475//21
f 8//21 539//21 10//21
f 251//113 260//113 291//113
f 290//155 253//155 291//155
f 516//1 514//1 74//1
f 514//1 465//1 113//1
f 462//1 463//1 113//1
f 465//1 464//1 113//1
f 540//21 505//21 513//21
f 541//21 542//21 505//21
f 543//1 493//1 544//1
f 545//1 543//1 544//1
f 546//1 405//1 406//1
f 406//1 395//1 546//1
f 81//1 546//1 395//1
f 80//1 547//1 81//1
f 547//1 78//1 81//1
f 542//21 517//21 505//21
f 540//21 541//21 505//21
f 530//193 268//193 274//193
f 519//21 521//21 515//21
f 515//21 505//21 517//21
f 521//21 528//21 520//21
f 548//21 498//21 538//21
f 513//21 498//21 549//21
f 549//21 498//21 548//21
f 415//1 414//1 407//1
f 345//1 332//1 458//1
f 459//1 504//1 345//1
f 458//1 459//1 345//1
f 476//1 343//1 333//1
f 336//1 345//1 504//1
f 414//1 337//1 504//1
f 502//1 414//1 504//1
f 492//1 544//1 493//1
f 550//1 407//1 414//1
f 499//1 551//1 414//1
f 529//21 526//21 520//21
f 469//21 520//21 527//21
f 527//21 552//21 469//21
f 552//21 553//21 469//21
f 553//21 532//21 469//21
f 439//21 469//21 532//21
f 534//21 439//21 531//21
f 536//21 524//21 523//21
f 554//21 523//21 555//21
f 522//21 555//21 523//21
f 439//21 533//21 523//21
f 306//194 406//194 556//194
f 251//155 291//155 253//155
f 253//195 290//195 222//195
f 12//166 222//166 290//166
f 557//194 558//194 559//194
f 2//168 221//168 222//168
f 2//167 222//167 12//167
f 221//170 2//170 1//170
f 307//196 491//196 551//196
f 198//174 255//174 256//174
f 82//197 547//197 83//197
f 87//198 83//198 79//198
f 274//193 539//193 530//193
f 276//199 560//199 274//199
f 267//200 492//200 491//200
f 502//117 504//117 561//117
f 561//201 504//201 459//201
f 539//199 274//199 560//199
f 276//202 261//202 560//202
f 261//201 275//201 260//201
f 288//203 465//203 514//203
f 288//204 514//204 262//204
f 516//205 262//205 514//205
f 516//206 75//206 262//206
f 72//207 187//207 75//207
f 502//199 322//199 321//199
f 1//170 254//170 221//170
f 502//202 561//202 322//202
f 256//208 254//208 1//208
f 277//112 561//112 459//112
f 278//113 277//113 459//113
f 525//170 478//170 476//170
f 562//1 138//1 559//1
f 525//208 563//208 478//208
f 295//114 478//114 563//114
f 295//174 563//174 350//174
f 406//209 272//209 247//209
f 539//21 8//21 530//21
f 272//194 406//194 306//194
f 488//210 564//210 565//210
f 560//21 10//21 539//21
f 523//21 566//21 8//21
f 488//179 565//179 486//179
f 301//211 490//211 537//211
f 491//212 266//212 267//212
f 567//21 523//21 568//21
f 569//21 523//21 558//21
f 261//21 10//21 560//21
f 301//213 537//213 463//213
f 307//196 266//196 491//196
f 530//21 8//21 570//21
f 87//214 79//214 247//214
f 395//214 247//214 79//214
f 395//209 406//209 247//209
f 556//215 544//215 306//215
f 265//215 306//215 544//215
f 252//21 10//21 261//21
f 265//189 544//189 492//189
f 571//1 128//1 572//1
f 570//21 8//21 566//21
f 569//21 568//21 523//21
f 567//21 566//21 523//21
f 573//1 132//1 574//1
f 198//1 155//1 147//1
f 156//1 3//1 198//1
f 280//216 307//216 499//216
f 147//1 146//1 150//1
f 150//1 151//1 195//1
f 82//165 78//165 547//165
f 80//197 83//197 547//197
f 80//198 79//198 83//198
f 554//21 558//21 523//21
f 503//1 473//1 195//1
f 551//217 499//217 307//217
f 499//218 500//218 280//218
f 281//192 280//192 500//192
f 500//193 501//193 281//193
f 321//193 281//193 501//193
f 501//199 502//199 321//199
f 302//158 465//158 289//158
f 289//203 465//203 288//203
f 512//1 195//1 473//1
f 75//219 243//219 262//219
f 472//1 511//1 473//1
f 575//1 576//1 485//1
f 576//1 508//1 485//1
f 577//1 575//1 485//1
f 186//161 187//161 71//161
f 485//1 509//1 577//1
f 578//1 577//1 509//1
f 186//162 71//162 189//162
f 579//1 509//1 506//1
f 578//1 509//1 579//1
f 76//163 188//163 189//163
f 482//1 503//1 195//1
f 479//1 482//1 195//1
f 188//164 76//164 244//164
f 4//21 6//21 523//21
f 8//21 4//21 523//21
f 128//1 573//1 580//1
f 580//1 572//1 128//1
f 128//1 571//1 581//1
f 128//1 581//1 582//1
f 128//1 582//1 583//1
f 583//1 510//1 128//1
f 584//1 470//1 510//1
f 507//1 470//1 584//1
f 334//155 320//155 278//155
f 152//1 160//1 106//1
f 160//1 168//1 106//1
f 168//1 165//1 106//1
f 171//1 177//1 106//1
f 132//1 128//1 127//1
f 138//1 23//1 559//1
f 562//1 139//1 138//1
f 192//1 140//1 139//1
f 585//1 132//1 192//1
f 585//1 574//1 132//1
f 128//1 132//1 573//1
f 298//195 320//195 334//195
f 522//198 524//198 139//198
f 16//21 19//21 523//21
f 6//21 16//21 523//21
f 296//21 478//21 292//21
f 292//21 586//21 296//21
f 478//21 295//21 292//21
f 300//220 490//220 299//220
f 535//165 574//165 536//165
f 587//196 566//196 567//196
f 147//221 162//221 198//221
f 587//217 269//217 566//217
f 299//222 490//222 301//222
f 463//223 241//223 301//223
f 130//1 588//1 330//1
f 589//1 25//1 587//1
f 25//1 27//1 587//1
f 269//1 587//1 27//1
f 27//1 29//1 269//1
f 557//1 559//1 23//1
f 32//1 153//1 88//1
f 30//1 153//1 32//1
f 28//1 153//1 30//1
f 26//1 153//1 28//1
f 24//1 153//1 26//1
f 88//1 153//1 92//1
f 590//1 591//1 22//1
f 22//1 25//1 590//1
f 589//1 590//1 25//1
f 23//1 22//1 591//1
f 591//1 557//1 23//1
f 129//1 153//1 131//1
f 131//1 153//1 143//1
f 143//1 153//1 144//1
f 144//1 153//1 145//1
f 111//1 153//1 129//1
f 102//1 153//1 111//1
f 101//1 153//1 102//1
f 145//1 153//1 21//1
f 21//1 153//1 24//1
f 181//1 92//1 154//1
f 176//1 153//1 101//1
f 175//1 153//1 176//1
f 174//1 153//1 175//1
f 172//1 153//1 174//1
f 167//1 153//1 172//1
f 159//1 153//1 167//1
f 157//1 153//1 159//1
f 154//1 92//1 153//1
f 196//1 193//1 181//1
f 193//1 190//1 181//1
f 190//1 185//1 181//1
f 185//1 97//1 181//1
f 97//1 92//1 181//1
f 200//1 196//1 181//1
f 557//215 591//215 558//215
f 181//1 259//1 257//1
f 181//1 257//1 249//1
f 181//1 249//1 245//1
f 181//1 245//1 240//1
f 181//1 240//1 236//1
f 181//1 236//1 235//1
f 181//1 235//1 232//1
f 181//1 232//1 230//1
f 181//1 230//1 225//1
f 181//1 225//1 219//1
f 181//1 219//1 217//1
f 181//1 217//1 216//1
f 181//1 216//1 211//1
f 181//1 211//1 209//1
f 181//1 209//1 204//1
f 204//1 200//1 181//1
f 559//209 554//209 555//209
f 331//1 328//1 362//1
f 554//194 559//194 558//194
f 522//214 139//214 562//214
f 303//1 362//1 324//1
f 304//1 303//1 324//1
f 310//1 304//1 313//1
f 317//1 313//1 304//1
f 319//1 317//1 304//1
f 324//1 319//1 304//1
f 328//1 324//1 362//1
f 331//1 361//1 330//1
f 568//224 591//224 590//224
f 524//197 536//197 192//197
f 585//197 192//197 536//197
f 589//225 567//225 590//225
f 568//226 590//226 567//226
f 521//156 506//156 528//156
f 192//198 139//198 524//198
f 567//196 589//196 587//196
f 330//1 338//1 367//1
f 570//216 566//216 269//216
f 510//158 526//158 529//158
f 570//218 269//218 530//218
f 528//156 506//156 507//156
f 569//215 558//215 591//215
f 361//1 331//1 362//1
f 360//1 330//1 361//1
f 360//1 355//1 330//1
f 355//1 351//1 330//1
f 351//1 346//1 330//1
f 346//1 344//1 330//1
f 335//1 330//1 344//1
f 338//1 330//1 335//1
f 584//157 529//157 507//157
f 528//157 507//157 529//157
f 569//224 591//224 568//224
f 367//1 372//1 330//1
f 510//158 529//158 584//158
f 372//1 68//1 330//1
f 583//203 527//203 510//203
f 66//1 68//1 372//1
f 583//204 582//204 527//204
f 552//205 527//205 582//205
f 582//206 581//206 552//206
f 121//1 136//1 14//1
f 125//1 105//1 96//1
f 109//1 108//1 105//1
f 592//1 65//1 593//1
f 594//1 592//1 593//1
f 14//1 593//1 65//1
f 65//1 592//1 595//1
f 65//1 595//1 596//1
f 65//1 596//1 597//1
f 598//1 62//1 597//1
f 65//1 597//1 62//1
f 580//227 534//227 572//227
f 391//1 367//1 392//1
f 387//1 367//1 391//1
f 385//1 367//1 387//1
f 382//1 367//1 385//1
f 377//1 367//1 382//1
f 376//1 367//1 377//1
f 372//1 367//1 376//1
f 396//1 392//1 367//1
f 534//228 580//228 573//228
f 574//164 535//164 573//164
f 585//165 536//165 574//165
f 367//1 428//1 427//1
f 367//1 427//1 423//1
f 367//1 423//1 418//1
f 367//1 418//1 416//1
f 367//1 416//1 411//1
f 367//1 411//1 410//1
f 367//1 410//1 404//1
f 396//1 367//1 404//1
f 255//221 198//221 162//221
f 150//229 239//229 162//229
f 150//229 162//229 147//229
f 599//230 600//230 601//230
f 601//231 602//231 599//231
f 150//232 195//232 239//232
f 601//233 603//233 602//233
f 46//231 599//231 602//231
f 602//95 38//95 46//95
f 602//233 603//233 38//233
f 601//234 604//234 603//234
f 510//203 527//203 526//203
f 604//21 605//21 603//21
f 581//219 553//219 552//219
f 600//1 599//1 606//1
f 607//21 608//21 609//21
f 610//42 374//42 375//42
f 553//126 581//126 571//126
f 553//207 571//207 532//207
f 579//211 519//211 578//211
f 379//235 381//235 611//235
f 572//161 531//161 571//161
f 532//161 571//161 531//161
f 519//213 579//213 506//213
f 610//236 611//236 381//236
f 610//236 381//236 374//236
f 378//237 365//237 611//237
f 531//227 572//227 534//227
f 555//214 522//214 562//214
f 612//21 613//21 614//21
f 611//238 615//238 378//238
f 610//239 375//239 615//239
f 610//239 615//239 611//239
f 562//209 559//209 555//209
f 573//228 533//228 534//228
f 615//21 340//21 378//21
f 375//21 340//21 615//21
f 609//21 608//21 612//21
f 573//164 535//164 533//164
f 379//1 339//1 381//1
f 616//21 614//21 613//21
f 617//240 618//240 619//240
f 617//240 619//240 620//240
f 608//21 607//21 621//21
f 617//241 40//241 622//241
f 623//21 612//21 608//21
f 613//21 612//21 623//21
f 618//242 617//242 624//242
f 622//242 624//242 617//242
f 625//21 626//21 627//21
f 195//232 475//232 239//232
f 538//243 475//243 512//243
f 195//243 512//243 475//243
f 64//21 607//21 628//21
f 629//21 628//21 607//21
f 630//21 607//21 631//21
f 632//21 631//21 633//21
f 633//21 631//21 607//21
f 634//21 607//21 630//21
f 629//21 607//21 634//21
f 52//24 51//24 54//24
f 635//21 607//21 636//21
f 512//244 511//244 538//244
f 548//244 538//244 511//244
f 325//27 60//27 59//27
f 205//240 52//240 206//240
f 54//240 206//240 52//240
f 548//245 511//245 549//245
f 472//245 549//245 511//245
f 637//21 638//21 607//21
f 639//21 637//21 607//21
f 638//21 640//21 607//21
f 640//21 641//21 607//21
f 641//21 636//21 607//21
f 642//21 639//21 607//21
f 621//21 607//21 635//21
f 63//21 642//21 607//21
f 63//21 607//21 64//21
f 326//246 643//246 207//246
f 205//246 207//246 643//246
f 471//247 549//247 472//247
f 199//87 207//87 206//87
f 69//28 61//28 18//28
f 643//242 59//242 52//242
f 643//242 52//242 205//242
f 69//248 70//248 292//248
f 69//248 292//248 61//248
f 549//247 471//247 513//247
f 292//249 70//249 95//249
f 292//249 95//249 644//249
f 94//250 644//250 95//250
f 206//1 54//1 199//1
f 53//1 199//1 54//1
f 508//251 540//251 513//251
f 508//251 513//251 471//251
f 94//250 626//250 644//250
f 626//252 94//252 100//252
f 626//252 100//252 616//252
f 59//21 643//21 325//21
f 326//21 325//21 643//21
f 616//253 100//253 104//253
f 616//253 104//253 614//253
f 540//210 508//210 541//210
f 576//210 541//210 508//210
f 614//254 104//254 108//254
f 614//254 108//254 612//254
f 645//255 601//255 606//255
f 600//255 606//255 601//255
f 612//256 108//256 110//256
f 612//256 110//256 609//256
f 575//179 542//179 541//179
f 575//179 541//179 576//179
f 609//257 110//257 123//257
f 609//257 123//257 607//257
f 645//258 605//258 601//258
f 607//259 123//259 633//259
f 625//260 627//260 119//260
f 577//180 517//180 575//180
f 542//180 575//180 517//180
f 625//261 119//261 120//261
f 625//261 120//261 586//261
f 645//262 606//262 45//262
f 517//181 577//181 578//181
f 517//220 578//220 518//220
f 37//95 46//95 38//95
f 608//263 621//263 14//263
f 608//264 14//264 109//264
f 623//265 608//265 109//265
f 623//265 109//265 105//265
f 613//266 623//266 105//266
f 613//266 105//266 125//266
f 578//222 519//222 518//222
f 646//267 613//267 125//267
f 646//267 125//267 124//267
f 627//268 646//268 124//268
f 627//268 124//268 126//268
f 604//258 601//258 605//258
f 627//260 126//260 119//260
f 506//223 521//223 519//223
f 631//269 632//269 134//269
f 15//269 134//269 632//269
f 605//21 43//21 38//21
f 123//259 13//259 633//259
f 13//270 15//270 633//270
f 633//270 15//270 632//270
f 45//1 606//1 46//1
f 606//1 599//1 46//1
f 114//1 312//1 118//1
f 118//1 312//1 647//1
f 134//271 133//271 631//271
f 133//272 630//272 631//272
f 618//273 645//273 648//273
f 649//273 619//273 648//273
f 618//273 648//273 619//273
f 133//274 135//274 630//274
f 135//275 137//275 630//275
f 36//21 35//21 38//21
f 630//276 137//276 634//276
f 650//1 312//1 651//1
f 652//277 618//277 624//277
f 137//278 629//278 634//278
f 137//279 136//279 629//279
f 136//280 121//280 629//280
f 45//281 653//281 648//281
f 45//281 648//281 645//281
f 629//282 121//282 628//282
f 121//283 64//283 628//283
f 635//284 636//284 594//284
f 635//284 594//284 593//284
f 43//285 605//285 645//285
f 636//286 641//286 594//286
f 621//287 635//287 593//287
f 621//287 593//287 14//287
f 654//288 655//288 647//288
f 656//289 654//289 647//289
f 656//289 647//289 650//289
f 43//21 36//21 38//21
f 603//21 605//21 38//21
f 641//286 592//286 594//286
f 645//277 618//277 652//277
f 121//283 65//283 64//283
f 647//290 657//290 118//290
f 63//291 62//291 642//291
f 642//292 598//292 639//292
f 658//293 656//293 650//293
f 658//293 650//293 651//293
f 62//294 598//294 642//294
f 41//295 43//295 652//295
f 659//296 658//296 651//296
f 659//296 651//296 660//296
f 598//297 597//297 637//297
f 598//298 637//298 639//298
f 637//299 596//299 638//299
f 661//300 659//300 660//300
f 661//300 660//300 662//300
f 645//295 652//295 43//295
f 597//301 596//301 637//301
f 596//302 595//302 638//302
f 663//303 664//303 661//303
f 663//303 661//303 662//303
f 595//304 640//304 638//304
f 665//305 666//305 620//305
f 617//305 620//305 666//305
f 34//305 617//305 666//305
f 595//306 592//306 641//306
f 595//307 641//307 640//307
f 34//241 40//241 617//241
f 667//115 664//115 663//115
f 668//308 47//308 666//308
f 34//309 666//309 47//309
f 44//241 622//241 40//241
f 625//21 292//21 644//21
f 616//21 627//21 626//21
f 613//21 646//21 616//21
f 646//21 627//21 616//21
f 654//310 664//310 380//310
f 658//311 659//311 656//311
f 654//310 656//310 659//310
f 654//312 659//312 661//312
f 654//310 661//310 664//310
f 667//310 380//310 664//310
f 44//21 624//21 622//21
f 620//1 619//1 665//1
f 657//289 647//289 655//289
f 665//1 619//1 649//1
f 655//313 380//313 611//313
f 379//313 611//313 380//313
f 654//314 380//314 655//314
f 61//21 523//21 19//21
f 644//21 626//21 625//21
f 586//21 292//21 625//21
f 45//1 47//1 649//1
f 653//1 45//1 649//1
f 665//1 649//1 47//1
f 668//1 665//1 47//1
f 68//42 67//42 130//42
f 42//277 652//277 624//277
f 17//1 191//1 18//1
f 20//1 191//1 17//1
f 9//1 11//1 183//1
f 210//1 218//1 18//1
f 67//1 18//1 218//1
f 218//1 220//1 67//1
f 220//1 226//1 67//1
f 649//315 648//315 653//315
f 67//29 66//29 370//29
f 41//316 652//316 42//316
f 666//317 665//317 668//317
f 120//1 67//1 669//1
f 67//1 370//1 669//1
f 50//318 57//318 48//318
f 50//318 48//318 34//318
f 370//1 401//1 669//1
f 657//319 655//319 670//319
f 50//1 47//1 46//1
f 285//320 297//320 401//320
f 34//22 36//22 40//22
f 586//321 120//321 669//321
f 586//321 669//321 297//321
f 671//300 672//300 673//300
f 671//303 673//303 674//303
f 675//303 674//303 673//303
f 624//21 44//21 42//21
f 675//115 474//115 674//115
f 676//1 677//1 402//1
f 39//42 44//42 40//42
f 34//322 47//322 50//322
f 408//1 676//1 402//1
f 281//21 321//21 279//21
f 286//323 285//323 401//323
f 474//324 675//324 365//324
f 670//324 365//324 675//324
f 670//324 675//324 673//324
f 670//324 673//324 678//324
f 414//325 263//325 279//325
f 279//326 550//326 414//326
f 279//327 282//327 550//327
f 283//328 408//328 550//328
f 282//329 283//329 550//329
f 284//330 676//330 408//330
f 611//237 365//237 655//237
f 670//331 655//331 365//331
f 283//332 284//332 408//332
f 284//333 677//333 676//333
f 284//334 286//334 677//334
f 286//335 401//335 677//335
f 669//320 401//320 297//320
f 285//21 278//21 297//21
f 322//21 561//21 279//21
f 365//21 364//21 390//21
f 390//21 474//21 365//21
f 390//21 394//21 474//21
f 561//21 277//21 279//21
f 297//21 296//21 586//21
f 130//1 330//1 68//1
f 372//95 370//95 66//95
f 369//1 383//1 370//1
f 386//1 370//1 383//1
f 370//1 386//1 388//1
f 401//1 370//1 397//1
f 393//1 397//1 370//1
f 389//1 393//1 370//1
f 679//1 680//1 406//1
f 680//1 681//1 406//1
f 384//1 380//1 403//1
f 347//1 339//1 380//1
f 682//1 545//1 556//1
f 556//1 406//1 682//1
f 683//1 684//1 406//1
f 684//1 682//1 406//1
f 401//1 402//1 677//1
f 403//1 380//1 461//1
f 551//1 491//1 493//1
f 414//1 551//1 493//1
f 380//1 667//1 461//1
f 685//21 686//21 87//21
f 686//21 687//21 87//21
f 248//21 685//21 87//21
f 273//21 248//21 247//21
f 687//21 169//21 87//21
f 271//21 273//21 272//21
f 81//49 86//49 546//49
f 86//336 405//336 546//336
f 660//1 688//1 662//1
f 651//1 688//1 660//1
f 647//1 312//1 650//1
f 86//337 85//337 405//337
f 405//338 85//338 170//338
f 169//339 689//339 170//339
f 169//340 687//340 689//340
f 687//341 679//341 689//341
f 687//342 686//342 679//342
f 678//300 673//300 672//300
f 680//343 679//343 686//343
f 670//324 678//324 690//324
f 691//344 690//344 678//344
f 686//345 685//345 680//345
f 685//346 681//346 680//346
f 685//347 248//347 681//347
f 248//348 692//348 681//348
f 692//349 273//349 683//349
f 692//350 248//350 273//350
f 273//351 271//351 684//351
f 273//352 684//352 683//352
f 270//353 682//353 684//353
f 271//354 270//354 684//354
f 270//355 545//355 682//355
f 545//356 264//356 543//356
f 270//357 264//357 545//357
f 543//358 263//358 493//358
f 264//359 263//359 543//359
f 663//1 662//1 688//1
f 414//325 493//325 263//325
f 688//115 588//115 461//115
f 689//1 679//1 406//1
f 681//1 692//1 406//1
f 170//1 689//1 406//1
f 461//115 667//115 688//115
f 663//115 688//115 667//115
f 692//1 683//1 406//1
f 544//1 556//1 545//1
f 408//1 407//1 550//1
f 158//21 244//21 84//21
f 169//21 85//21 87//21
f 460//21 671//21 674//21
f 657//21 457//21 258//21
f 671//21 460//21 672//21
f 670//289 690//289 657//289
f 693//289 657//289 690//289
f 118//290 657//290 258//290
f 690//293 691//293 693//293
f 694//293 693//293 691//293
f 672//296 694//296 678//296
f 691//296 678//296 694//296
f 694//21 672//21 460//21
f 674//115 474//115 460//115
f 455//21 451//21 474//21
f 457//21 300//21 258//21
f 657//21 693//21 457//21
f 460//21 468//21 694//21
f 457//21 693//21 468//21
f 694//21 468//21 693//21
f 523//21 61//21 294//21
f 695//21 523//21 696//21
f 697//21 523//21 294//21
f 487//21 457//21 488//21
f 457//21 439//21 698//21
f 699//21 698//21 523//21
f 699//21 523//21 695//21
f 696//21 523//21 697//21
f 700//21 457//21 698//21
f 523//21 698//21 439//21
f 701//21 488//21 457//21
f 700//21 701//21 457//21
f 301//21 112//21 299//21
f 300//21 457//21 487//21
f 354//221 294//221 293//221
f 697//229 294//229 354//229
f 309//245 698//245 702//245
f 564//251 701//251 700//251
f 701//210 564//210 488//210
f 688//95 312//95 588//95
f 330//95 588//95 312//95
f 130//115 461//115 588//115
f 563//1 525//1 348//1
f 350//1 563//1 348//1
f 358//1 305//1 702//1
f 564//1 703//1 312//1
f 565//1 564//1 312//1
f 490//1 489//1 114//1
f 565//1 312//1 486//1
f 463//1 537//1 114//1
f 114//1 489//1 312//1
f 703//1 309//1 312//1
f 308//1 312//1 309//1
f 704//1 358//1 702//1
f 359//1 358//1 704//1
f 309//1 702//1 305//1
f 314//1 312//1 311//1
f 688//1 651//1 312//1
f 704//243 695//243 359//243
f 702//244 695//244 704//244
f 702//244 699//244 695//244
f 703//247 700//247 309//247
f 700//251 703//251 564//251
f 293//221 350//221 354//221
f 697//229 354//229 357//229
f 697//232 357//232 696//232
f 359//232 696//232 357//232
f 359//243 695//243 696//243
f 699//245 702//245 698//245
f 700//247 698//247 309//247
