# Blender 5.2.2 LTS
# www.blender.org
mtllib key_bite.mtl
o BiteHandle
v -12.477646 1.097448 8.547136
v -12.483696 1.175829 8.548258
v -12.477646 1.097448 8.548258
v -12.483696 1.175829 8.547136
v -12.398445 1.142329 8.547136
v -12.664948 0.735579 8.547136
v -12.701698 0.717579 8.547136
v -12.626198 0.748829 8.547136
v -12.585945 0.756829 8.547136
v -13.652199 0.602829 8.547136
v -12.545197 0.759579 8.547136
v -12.504448 0.756829 8.547136
v -12.464195 0.748829 8.547136
v -12.425446 0.735579 8.547136
v -12.425446 0.735579 7.499384
v -12.464195 0.748829 7.499384
v -12.388695 0.717579 7.499384
v -12.388695 0.717579 8.547136
v -12.261696 1.202079 8.547136
v -12.354698 0.694829 8.547136
v -12.110443 1.252329 8.547136
v -12.354698 0.694829 7.499384
v -12.323692 0.667829 7.499384
v -12.323692 0.667829 8.547136
v -12.296700 0.637079 8.547136
v -12.296700 0.637079 7.499384
v -12.273949 0.603079 7.499384
v -11.838943 1.546079 7.499384
v -12.273949 0.603079 8.547136
v -11.947449 1.292329 8.547136
v -12.255943 0.566329 8.547136
v -11.009949 0.370329 8.547136
v -11.596947 -0.033171 8.547136
v -11.775192 -0.015421 8.547136
v -12.232193 0.446329 8.547136
v -12.234695 0.405579 8.547136
v -12.234695 0.487329 8.547136
v -12.242699 0.527329 8.547136
v -11.234200 1.339079 8.547136
v -11.055695 1.321329 8.547136
v -9.602829 0.370329 8.547136
v -10.167709 0.351610 8.547136
v -10.211693 0.307079 8.547136
v -10.432693 0.163829 8.547136
v -10.569443 0.104079 8.547136
v -10.312698 0.231829 8.547136
v -10.720444 0.053829 8.547136
v -9.602829 0.370329 8.546381
v -10.883698 0.013579 8.547136
v -11.055695 -0.015421 8.547136
v -11.234200 -0.033171 8.547136
v -11.009949 1.313615 8.547136
v -11.415443 1.345079 8.547136
v -11.596947 1.339079 8.547136
v -11.775192 1.321329 8.547136
v -11.009949 0.370329 8.546381
v -12.242699 0.365329 8.547136
v -11.415443 -0.038921 8.547136
v -11.596947 -0.033171 8.548258
v -11.234200 -0.033171 8.548258
v -11.415443 -0.038921 8.548258
v -10.888771 -1.252514 8.548258
v -11.304008 -1.252514 8.548258
v -10.871452 -1.252514 8.548258
v -9.487137 -1.252514 7.684114
v -10.873459 -1.252514 7.684114
v -10.854355 -1.252514 8.548258
v -11.055695 -0.015421 8.548258
v -10.838249 -1.252514 8.548258
v -10.823669 -1.252514 8.548258
v -10.883698 0.013579 8.548258
v -10.720444 0.053829 8.548258
v -10.569443 0.104079 8.548258
v -10.811089 -1.252514 8.548258
v -10.800720 -1.252514 8.548258
v -10.792664 -1.252514 8.548258
v -10.432693 0.163829 8.548258
v -10.312698 0.231829 8.548258
v -10.078194 0.231829 8.548258
v -10.774193 -1.252514 8.548258
v -10.211693 0.307079 8.548258
v -10.140450 0.307079 8.548258
v -10.167709 0.351610 8.548258
v -10.140450 0.307079 8.547136
v -10.078194 0.231829 8.547136
v -10.004196 0.163829 8.547136
v -9.919693 0.104079 8.548258
v -10.004196 0.163829 8.548258
v -9.919693 0.104079 8.547136
v -9.826195 0.053829 8.547136
v -9.826195 0.053829 8.548258
v -10.732735 -1.252514 8.548258
v -9.725449 0.013579 8.548258
v -10.744484 -1.252514 8.548258
v -10.755508 -1.252514 8.548258
v -10.765480 -1.252514 8.548258
v -9.619194 -0.015421 8.548258
v -10.720695 -1.252514 8.548258
v -9.725449 0.013579 8.547136
v -9.619194 -0.015421 8.547136
v -9.509193 -0.033171 8.547136
v -9.509193 -0.033171 8.548258
v -10.697678 -1.252514 8.548258
v -10.708839 -1.252514 8.548258
v -9.396942 -0.038921 8.548258
v -9.175446 -0.261421 8.548258
v -9.328346 -0.035400 8.548258
v -9.328346 -0.035400 8.547136
v -10.645462 -1.252514 8.548258
v -9.396942 -0.038921 8.547136
v -8.087082 -1.252514 8.548258
v -3.483955 -1.252514 7.723551
v -7.754005 -1.252514 8.548258
v -7.554199 -1.151421 8.548258
v -7.754005 -1.252514 9.498255
v -3.483955 -1.252514 11.340548
v -3.857193 -0.721921 11.751894
v -3.393669 -1.252514 11.280901
v -9.487137 -1.252514 11.381792
v -7.754005 -1.252514 10.516253
v -8.087082 -1.252514 10.516253
v -7.554199 -1.151421 10.516253
v -9.175446 -0.261421 10.516253
v -10.645462 -1.252514 10.516253
v -10.744423 -1.252514 10.516253
v -9.602829 0.370329 10.516253
v -10.846481 -1.252514 10.516253
v -10.939499 -1.252514 10.516253
v -10.873459 -1.252514 11.381792
v -11.009949 0.370329 10.516253
v -11.009949 0.370329 10.517008
v -9.602829 0.370329 10.517008
v -11.009949 2.371036 10.516253
v -12.242699 0.365329 10.516253
v -12.255943 0.326579 10.516253
v -12.255943 0.566329 10.516253
v -12.242699 0.527329 10.516253
v -12.234695 0.405579 10.516253
v -12.232193 0.446329 10.516253
v -12.234695 0.487329 10.516253
v -12.242699 0.527329 11.624384
v -12.234695 0.487329 11.624384
v -12.232193 0.446329 11.624384
v -11.199944 0.433329 11.624384
v -11.199944 0.433329 11.751894
v -11.838943 -0.679171 11.624384
v -11.838943 1.546079 11.624384
v -11.838943 1.546079 11.751894
v -12.255943 0.326579 11.624384
v -12.273949 0.289829 11.624384
v -12.255943 0.566329 11.624384
v -12.273949 0.603079 11.624384
v -12.234695 0.405579 11.624384
v -12.242699 0.365329 11.624384
v -12.296700 0.637079 11.624384
v -12.273949 0.603079 10.516253
v -12.296700 0.637079 10.516253
v -12.323692 0.667829 10.516253
v -12.323692 0.667829 11.624384
v -12.354698 0.694829 10.516253
v -12.388695 0.717579 10.516253
v -12.354698 0.694829 11.624384
v -12.388695 0.717579 11.624384
v -12.425446 0.735579 11.624384
v -12.425446 0.735579 10.516253
v -11.607697 2.794579 10.516253
v -12.464195 0.748829 10.516253
v -12.464195 0.748829 11.624384
v -12.504448 0.756829 11.624384
v -12.545197 0.759579 10.516253
v -12.504448 0.756829 10.516253
v -12.545197 0.759579 11.624384
v -12.585945 0.756829 11.624384
v -13.117195 1.546079 11.624384
v -12.585945 0.756829 10.516253
v -13.565445 2.762829 10.516253
v -12.626198 0.748829 11.624384
v -12.626198 0.748829 10.516253
v -12.664948 0.735579 10.516253
v -12.664948 0.735579 11.624384
v -12.701698 0.717579 11.624384
v -12.701698 0.717579 10.516253
v -12.735695 0.694829 10.516253
v -12.735695 0.694829 11.624384
v -12.766693 0.667829 11.624384
v -12.766693 0.667829 10.516253
v -12.793694 0.637079 11.624384
v -12.793694 0.637079 10.516253
v -12.816444 0.603079 11.624384
v -12.816444 0.603079 10.516253
v -12.834450 0.566329 10.516253
v -14.940193 0.433329 10.516253
v -14.940193 0.433329 11.270761
v -13.947540 -1.252514 10.670496
v -13.947540 -1.252514 10.516253
v -12.816444 0.289829 10.516253
v -12.847694 0.365329 10.516253
v -12.834450 0.326579 10.516253
v -12.847694 0.527329 10.516253
v -12.855698 0.487329 10.516253
v -12.858444 0.446329 10.516253
v -12.855698 0.405579 10.516253
v -12.855698 0.405579 11.624384
v -12.858444 0.446329 11.624384
v -13.756447 0.433329 11.624384
v -12.855698 0.487329 11.624384
v -12.847694 0.527329 11.624384
v -12.834450 0.566329 11.624384
v -13.117195 -0.679171 11.751894
v -13.117195 -0.679171 11.624384
v -13.756447 0.433329 11.751894
v -13.117195 1.546079 11.751894
v -12.834450 0.326579 11.624384
v -12.816444 0.289829 11.624384
v -12.847694 0.365329 11.624384
v -12.793694 0.255829 11.624384
v -12.793694 0.255829 10.516253
v -12.766693 0.225079 11.624384
v -12.766693 0.225079 10.516253
v -13.500412 -1.252514 10.516253
v -13.491966 -1.252514 10.516253
v -13.482620 -1.252514 10.516253
v -13.252365 -1.252514 11.749147
v -13.248405 -1.252514 11.751894
v -13.763008 -1.252514 11.399141
v -11.569267 -1.252514 10.516253
v -13.419289 -1.252514 10.516253
v -13.429352 -1.252514 10.516253
v -13.440033 -1.252514 10.516253
v -13.450958 -1.252514 10.516253
v -13.461884 -1.252514 10.516253
v -13.472481 -1.252514 10.516253
v -12.735695 0.198079 10.516253
v -12.701698 0.175329 10.516253
v -12.664948 0.157079 10.516253
v -12.735695 0.198079 11.624384
v -12.664948 0.157079 11.624384
v -12.701698 0.175329 11.624384
v -12.626198 0.143829 11.624384
v -12.585945 0.135829 11.624384
v -12.626198 0.143829 10.516253
v -12.585945 0.135829 10.516253
v -12.545197 0.133329 10.516253
v -12.545197 0.133329 11.624384
v -12.504448 0.135829 11.624384
v -12.464195 0.143829 11.624384
v -12.504448 0.135829 10.516253
v -12.464195 0.143829 10.516253
v -12.425446 0.157079 11.624384
v -12.425446 0.157079 10.516253
v -11.559158 -1.252514 10.516253
v -11.548340 -1.252514 10.516253
v -11.537186 -1.252514 10.516253
v -12.388695 0.175329 10.516253
v -11.525955 -1.252514 10.516253
v -12.354698 0.198079 10.516253
v -11.514977 -1.252514 10.516253
v -10.956062 -1.252514 10.516253
v -12.323692 0.225079 10.516253
v -10.951546 -1.252514 10.516253
v -12.296700 0.255829 10.516253
v -10.947235 -1.252514 10.516253
v -12.273949 0.289829 10.516253
v -10.943192 -1.252514 10.516253
v -12.296700 0.255829 11.624384
v -12.323692 0.225079 11.624384
v -12.354698 0.198079 11.624384
v -12.388695 0.175329 11.624384
v -11.798141 -1.252514 11.751894
v -11.833572 -1.252514 11.751894
v -11.812393 -1.252514 11.751894
v -13.240616 -1.252514 11.751894
v -14.244942 0.433329 11.751894
v -13.274193 2.083829 11.751894
v -11.750198 2.086579 11.751894
v -11.607697 2.794579 11.279390
v -13.565445 2.762829 11.279390
v -11.009949 2.371036 10.517008
v -10.833946 2.246329 11.293261
v -10.833946 2.246329 10.517008
v -11.039696 1.588829 11.751894
v -3.850693 2.256829 11.276392
v -4.045197 1.588829 11.751894
v -3.253448 1.862829 11.293261
v -6.042450 1.128329 11.751894
v -5.572693 0.433329 11.751894
v -3.445946 1.202829 11.751894
v 3.441055 1.202829 11.751894
v 2.722801 0.971079 11.751894
v -1.548447 0.534579 11.751894
v -2.657700 0.534579 11.751894
v -3.728447 -0.343921 11.751894
v -2.426445 -0.117671 11.296259
v -3.167946 -0.740421 11.290628
v -3.167946 -0.740421 7.776148
v -3.393669 -1.252514 10.811647
v -3.393669 -1.252514 7.783609
v -3.857193 -0.721921 7.311884
v -3.728447 -0.343921 7.311884
v -2.426445 -0.117671 7.767519
v -2.657700 0.534579 7.311884
v -1.548447 0.534579 7.311884
v -1.732948 -0.128171 11.290628
v -1.732948 -0.128171 7.773149
v -0.744194 -0.716421 7.790384
v -0.652443 -0.011171 7.311884
v 2.575058 0.287079 7.756258
v 2.722801 0.971079 7.311884
v 3.747803 0.026079 7.311884
v 3.441055 1.202829 7.311884
v -3.445946 1.202829 7.311884
v -5.572693 0.433329 7.311884
v -4.045197 1.588829 7.311884
v -3.253448 1.862829 7.773149
v 3.252556 1.862829 8.546381
v -3.850693 2.256829 7.790384
v 3.252556 1.862829 7.770517
v -3.253448 1.862829 8.546381
v -5.572693 0.433329 8.546381
v -3.850693 2.256829 8.546381
v -6.042450 1.128329 8.546381
v -10.833946 2.246329 8.546381
v -10.833946 2.246329 7.770517
v -11.009949 1.370270 8.546381
v -9.175446 1.128329 8.546381
v -11.009949 2.371036 8.546381
v -11.607697 2.794579 8.547136
v -11.607697 2.794579 7.784754
v -11.009949 1.388579 8.547136
v -11.009949 2.371036 8.547136
v -12.565758 1.388579 8.547136
v -13.912949 1.255329 8.547136
v -13.937943 1.094829 8.547136
v -13.912949 0.934329 8.547136
v -13.931694 1.013829 8.547136
v -13.882195 0.857579 8.547136
v -13.723946 0.656329 8.547136
v -13.839943 0.784829 8.547136
v -13.565445 2.762829 8.547136
v -12.532944 1.332079 8.547136
v -12.565758 1.388579 8.548258
v -13.786949 0.717329 8.547136
v -13.931694 1.175829 8.547136
v -13.882195 1.332079 8.547136
v -13.849380 1.388579 8.547136
v -14.376457 1.388579 8.547136
v -13.882195 1.332079 8.548258
v -14.376457 1.388579 8.548258
v -13.849380 1.388579 8.548258
v -13.912949 1.255329 8.548258
v -13.937943 1.094829 8.548258
v -13.931694 1.175829 8.548258
v -14.940193 0.433329 8.548258
v -14.940193 0.433329 7.796015
v -13.882195 0.857579 8.548258
v -13.839943 0.784829 8.548258
v -13.931694 1.013829 8.548258
v -13.912949 0.934329 8.548258
v -13.947540 -1.252514 8.548258
v -13.723946 0.656329 8.548258
v -13.786949 0.717329 8.548258
v -13.698311 -1.252514 8.548258
v -13.947540 -1.252514 7.791941
v -13.252365 -1.252514 7.314653
v -13.684868 -1.252514 8.548258
v -13.763008 -1.252514 7.665255
v -13.947540 -1.252514 8.394495
v -13.652199 0.602829 8.548258
v -13.669365 -1.252514 8.548258
v -13.652214 -1.252514 8.548258
v -13.572693 0.557829 8.548258
v -13.572693 0.557829 8.547136
v -13.487198 0.522079 8.548258
v -13.396698 0.495829 8.548258
v -13.633759 -1.252514 8.548258
v -13.396698 0.495829 8.547136
v -13.487198 0.522079 8.547136
v -13.302948 0.480079 8.547136
v -13.302948 0.480079 8.548258
v -13.595299 -1.252514 8.548258
v -13.614586 -1.252514 8.548258
v -13.207695 0.474829 8.547136
v -13.207695 0.474829 8.548258
v -13.112198 0.480079 8.548258
v -13.576431 -1.252514 8.548258
v -13.507790 -1.252514 8.548258
v -12.834450 0.326579 8.548258
v -13.500412 -1.252514 8.548258
v -12.816444 0.289829 8.548258
v -13.491966 -1.252514 8.548258
v -13.482620 -1.252514 8.548258
v -12.793694 0.255829 8.548258
v -12.766693 0.225079 8.548258
v -12.816444 0.289829 7.499384
v -12.793694 0.255829 7.499384
v -12.766693 0.225079 7.499384
v -13.117195 -0.679171 7.499384
v -12.664948 0.157079 7.499384
v -13.117195 -0.679171 7.311884
v -12.545197 0.133329 7.499384
v -13.756447 0.433329 7.499384
v -12.701698 0.175329 7.499384
v -12.585945 0.135829 7.499384
v -11.838943 -0.679171 7.499384
v -12.735695 0.198079 7.499384
v -12.626198 0.143829 7.499384
v -12.585945 0.135829 8.548258
v -12.626198 0.143829 8.548258
v -12.664948 0.157079 8.548258
v -12.701698 0.175329 8.548258
v -13.440033 -1.252514 8.548258
v -13.450958 -1.252514 8.548258
v -13.461884 -1.252514 8.548258
v -13.472481 -1.252514 8.548258
v -12.735695 0.198079 8.548258
v -13.429352 -1.252514 8.548258
v -13.419289 -1.252514 8.548258
v -11.569267 -1.252514 8.548258
v -12.545197 0.133329 8.548258
v -12.504448 0.135829 7.499384
v -12.504448 0.135829 8.548258
v -11.559158 -1.252514 8.548258
v -11.548340 -1.252514 8.548258
v -12.464195 0.143829 8.548258
v -11.537186 -1.252514 8.548258
v -12.425446 0.157079 8.548258
v -11.505638 -1.252514 8.548258
v -11.474953 -1.252514 8.548258
v -12.261696 0.104079 8.548258
v -12.261696 0.104079 8.547136
v -12.110443 0.053829 8.548258
v -12.398445 0.163829 8.548258
v -12.404709 0.167377 8.548258
v -12.398445 0.163829 8.547136
v -12.388695 0.175329 8.547136
v -12.404709 0.167377 8.547136
v -12.425446 0.157079 7.499384
v -12.388695 0.175329 7.499384
v -12.354698 0.198079 7.499384
v -12.354698 0.198079 8.547136
v -12.323692 0.225079 8.547136
v -12.323692 0.225079 7.499384
v -12.296700 0.255829 7.499384
v -12.296700 0.255829 8.547136
v -12.110443 0.053829 8.547136
v -12.273949 0.289829 8.547136
v -12.255943 0.326579 8.547136
v -12.273949 0.289829 7.499384
v -12.255943 0.326579 7.499384
v -11.199944 0.433329 7.499384
v -12.232193 0.446329 7.499384
v -12.255943 0.566329 7.499384
v -12.242699 0.527329 7.499384
v -12.234695 0.487329 7.499384
v -11.199944 0.433329 7.311884
v -11.838943 1.546079 7.311884
v -12.234695 0.405579 7.499384
v -12.242699 0.365329 7.499384
v -11.039696 1.588829 7.311884
v -11.750198 2.086579 7.311884
v -13.117195 1.546079 7.311884
v -13.117195 1.546079 7.499384
v -12.701698 0.717579 7.499384
v -12.664948 0.735579 7.499384
v -12.816444 0.603079 7.499384
v -12.793694 0.637079 7.499384
v -12.766693 0.667829 7.499384
v -12.626198 0.748829 7.499384
v -12.585945 0.756829 7.499384
v -12.545197 0.759579 7.499384
v -12.735695 0.694829 7.499384
v -12.766693 0.667829 8.547136
v -12.735695 0.694829 8.547136
v -12.793694 0.637079 8.547136
v -12.816444 0.603079 8.547136
v -12.834450 0.566329 8.547136
v -12.836113 0.561426 8.547136
v -12.834450 0.566329 7.499384
v -12.842445 0.557829 8.547136
v -12.842445 0.557829 8.548258
v -12.928200 0.522079 8.547136
v -12.928200 0.522079 8.548258
v -12.847694 0.527329 8.548258
v -12.855698 0.487329 8.548258
v -12.858444 0.446329 8.548258
v -13.018700 0.495829 8.548258
v -12.847694 0.365329 8.548258
v -13.112198 0.480079 8.547136
v -12.855698 0.405579 8.548258
v -13.018700 0.495829 8.547136
v -12.855698 0.405579 7.499384
v -12.847694 0.365329 7.499384
v -12.858444 0.446329 7.499384
v -12.855698 0.487329 7.499384
v -12.847694 0.527329 7.499384
v -12.834450 0.326579 7.499384
v -12.836113 0.561426 8.548258
v -12.504448 0.756829 7.499384
v -13.756447 0.433329 7.311884
v -14.244942 0.433329 7.311884
v -13.274193 2.083829 7.311884
v -13.565445 2.762829 7.784754
v -13.248405 -1.252514 7.311884
v -13.240616 -1.252514 7.311884
v -11.833572 -1.252514 7.311884
v -11.838943 -0.679171 7.311884
v -11.812393 -1.252514 7.311884
v -11.039696 -0.721921 7.311884
v -11.798141 -1.252514 7.311884
v -6.042450 -0.261421 7.311884
v -9.175446 -0.261421 7.311884
v -9.645447 0.433329 7.311884
v -9.645447 0.433329 8.546381
v -9.175446 1.128329 7.311884
v -6.042450 1.128329 7.311884
v -6.735298 -0.261421 8.548258
v -6.997444 -0.673671 8.548258
v -6.735298 -0.261421 10.516253
v -6.042450 -0.261421 11.751894
v -5.615295 0.370329 10.517008
v -9.175446 -0.261421 11.751894
v -11.039696 -0.721921 11.751894
v -11.838943 -0.679171 11.751894
v -9.645447 0.433329 11.751894
v -9.175446 1.128329 10.517008
v -9.175446 1.128329 11.751894
v -9.645447 0.433329 10.517008
v -6.042450 1.128329 10.517008
v -5.572693 0.433329 10.517008
v -3.850693 2.256829 10.517008
v -3.253448 1.862829 10.517008
v 3.252556 1.862829 10.517008
v 3.252556 1.862829 11.296259
v 5.981308 0.433329 10.517008
v 3.844803 2.256829 10.517008
v 3.844803 2.256829 11.279390
v 13.868805 2.230329 11.304888
v 13.868805 2.230329 10.517008
v 4.147057 1.591329 11.751894
v 5.981308 0.433329 11.751894
v 3.747803 0.026079 11.751894
v 14.187302 1.596829 11.751894
v 6.652557 1.128329 11.751894
v 11.128304 1.128329 11.751894
v 11.799553 0.433329 11.751894
v 11.128304 1.128329 10.517008
v 11.799553 0.433329 10.517008
v 6.652557 1.128329 10.517008
v 16.665306 0.370329 10.517008
v 16.116585 1.546079 10.517008
v 11.738686 0.370329 10.517008
v 16.123077 1.541693 10.517008
v 16.665306 2.225975 10.517008
v 16.120552 1.546079 10.517008
v 16.123077 1.541693 11.624384
v 16.116585 1.546079 11.624384
v 16.120552 1.546079 11.751894
v 14.842308 -0.679171 11.624384
v 16.759804 0.433329 11.624384
v 16.759804 0.433329 11.751894
v 17.440056 0.798079 11.751894
v 16.120552 -0.679171 11.751894
v 16.120552 -0.679171 11.624384
v 17.440056 0.071329 11.751894
v 15.734474 -1.252514 11.751894
v 18.080055 -0.245421 11.276392
v 16.543884 -1.252514 11.391703
v 16.438766 -1.252514 11.439608
v 16.800850 -1.252514 11.274630
v 18.080055 1.112329 11.276392
v 15.905807 2.823829 11.273394
v 18.080055 1.112329 7.790384
v 18.080055 -0.245421 7.790384
v 17.440056 0.071329 7.311884
v 16.543884 -1.252514 7.672419
v 16.800850 -1.252514 7.790384
v 16.800850 -1.252514 10.226213
v 16.438766 -1.252514 7.624170
v 15.734474 -1.252514 7.311884
v 15.710594 -1.252514 7.311884
v 15.710594 -1.252514 11.751894
v 16.120552 -0.679171 7.311884
v 15.624008 -1.252514 7.311884
v 15.624008 -1.252514 11.751894
v 14.842308 -0.679171 7.311884
v 14.723907 -1.252514 7.311884
v 14.723907 -1.252514 11.751894
v 14.676125 -1.252514 7.311884
v 14.244553 -0.793671 7.311884
v 13.948128 -1.252514 7.680590
v 14.676125 -1.252514 11.751894
v 14.244553 -0.793671 11.751894
v 13.948128 -1.252514 11.383188
v 3.747307 -0.793671 11.751894
v 11.787674 -1.252514 11.383188
v 11.787674 -1.252514 7.680590
v 3.747307 -0.793671 7.311884
v 3.209335 -1.252514 7.754702
v 3.209335 -1.252514 11.309443
v 3.170662 -1.252514 7.784250
v 3.100304 -0.229421 7.767519
v 3.170662 -1.252514 11.175592
v 3.170662 -1.252514 11.279985
v 3.100304 -0.229421 11.299257
v 2.575058 0.287079 11.307520
v -0.652443 -0.011171 11.751894
v -0.744194 -0.716421 11.276392
v 6.652557 -0.261421 7.311884
v 5.981308 0.433329 7.311884
v 11.128304 -0.261421 7.311884
v 11.738686 0.370329 8.546381
v 11.799553 0.433329 7.311884
v 11.128304 -0.261421 11.751894
v 6.652557 -0.261421 11.751894
v 6.042175 0.370329 10.517008
v -5.615295 0.370329 8.546381
v 6.042175 0.370329 8.546381
v 5.981308 0.433329 8.546381
v 6.286308 0.749121 8.529879
v 6.286308 0.749121 8.546381
v 3.844803 2.256829 8.546381
v 3.844803 2.256829 7.787386
v 6.286308 2.250375 8.529879
v 6.286308 2.250375 8.546381
v 11.128304 1.128329 8.529879
v 13.206055 2.232081 8.529879
v 6.652557 1.128329 8.529879
v 13.868805 2.230329 7.759256
v 14.187302 1.596829 7.311884
v 14.753052 2.161079 7.311884
v 14.397057 2.810579 7.784754
v 13.868805 2.230329 8.546381
v 4.147057 1.591329 7.311884
v 11.128304 1.128329 7.311884
v 6.652557 1.128329 7.311884
v 11.799553 0.433329 8.529879
v 11.765984 0.398579 8.529879
v 13.206055 0.398579 8.529879
v 13.206055 0.398579 8.546381
v 11.765984 0.398579 8.546381
v 13.206055 2.232081 8.546381
v 16.665306 0.370329 8.546381
v 16.116585 1.546079 8.546381
v 16.123077 1.541693 8.546381
v 16.120552 1.546079 8.546381
v 16.123077 1.541693 7.499384
v 16.665306 2.225975 8.546381
v 16.116585 1.546079 7.499384
v 16.120552 1.546079 7.311884
v 14.842308 1.546079 7.499384
v 14.842308 1.546079 7.311884
v 14.842308 -0.679171 7.499384
v 14.203308 0.433329 7.499384
v 14.203308 0.433329 7.311884
v 16.120552 -0.679171 7.499384
v 16.759804 0.433329 7.499384
v 16.759804 0.433329 7.311884
v 17.440056 0.798079 7.311884
v 15.680801 2.161079 7.311884
v 15.905807 2.823829 7.790384
v 14.397057 2.810579 8.546381
v 15.905807 2.823829 8.546381
v 14.203308 0.433329 11.751894
v 14.842308 -0.679171 11.751894
v 14.203308 0.433329 11.624384
v 14.842308 1.546079 11.624384
v 14.842308 1.546079 11.751894
v 14.751556 2.161079 11.751894
v 15.680801 2.161079 11.751894
v 14.397057 2.810579 11.282022
v 14.397057 2.810579 10.517008
v 15.905807 2.823829 10.517008
v -6.997444 -0.673671 10.516253
v -7.089447 -0.785921 10.516253
v -7.089447 -0.785921 8.548258
v -7.190193 -0.887921 10.516253
v -7.190193 -0.887921 8.548258
v -7.266449 -0.954921 8.548258
v -7.384949 -1.045921 8.548258
v -7.305946 -0.986171 10.516253
v -7.463196 -1.099171 10.516253
v -7.482193 -1.111171 8.548258
v -11.947449 0.013579 8.547136
v -11.947449 0.013579 8.548258
v -11.775192 -0.015421 8.548258
v -11.351440 -1.252514 8.548258
v -11.396744 -1.252514 8.548258
v -11.438393 -1.252514 8.548258
v -12.464195 0.143829 7.499384
v -11.415443 1.345079 8.548258
v -11.947449 1.292329 8.548258
v -11.775192 1.321329 8.548258
v -12.532944 1.332079 8.548258
v -11.596947 1.339079 8.548258
v -11.009949 1.388579 8.548258
v -12.110443 1.252329 8.548258
v -12.261696 1.202079 8.548258
v -12.502197 1.255329 8.548258
v -12.398445 1.142329 8.548258
v -12.502197 1.255329 8.547136
v -11.009949 1.313615 8.548258
v -11.055695 1.321329 8.548258
v -11.234200 1.339079 8.548258
v -13.947540 -1.252514 11.272661
vn -0.9970 -0.0770 -0.0000
vn 0.4931 -0.8700 -0.0000
vn -0.0000 -0.0000 1.0000
vn -0.4399 -0.8981 -0.0000
vn -0.3236 -0.9462 -0.0000
vn -0.5562 -0.8311 -0.0000
vn -0.6567 -0.7541 -0.0000
vn -0.7515 -0.6597 -0.0000
vn -0.0000 -0.0000 -1.0000
vn -0.8311 -0.5561 -0.0000
vn -0.8980 -0.4400 -0.0000
vn -0.0000 1.0000 -0.0000
vn 1.0000 -0.0000 -0.0000
vn 0.0317 0.9995 -0.0000
vn -0.0317 0.9995 -0.0000
vn -0.0000 -1.0000 -0.0000
vn -0.2394 0.9709 -0.0000
vn -0.1663 0.9861 -0.0000
vn -0.3155 0.9489 -0.0000
vn -0.4927 0.8702 -0.0000
vn -0.4005 0.9163 -0.0000
vn -0.4933 0.8698 -0.0000
vn -0.5975 0.8018 -0.0000
vn -0.7113 0.7029 -0.0000
vn 0.8528 0.5222 -0.0000
vn -0.7117 0.7025 -0.0000
vn 0.7709 0.6370 -0.0000
vn 0.7703 0.6376 -0.0000
vn 0.6762 0.7367 -0.0000
vn 0.6767 0.7362 -0.0000
vn 0.5773 0.8165 -0.0000
vn 0.4737 0.8807 -0.0000
vn 0.4733 0.8809 -0.0000
vn -0.0000 -0.0001 1.0000
vn 0.3709 0.9287 -0.0000
vn 0.2632 0.9647 -0.0000
vn 0.3713 0.9285 -0.0000
vn 0.2635 0.9647 -0.0000
vn 0.1593 0.9872 -0.0000
vn -0.0000 0.0001 1.0000
vn 0.0512 0.9987 -0.0000
vn -0.0513 0.9987 -0.0000
vn -0.4515 0.8923 -0.0000
vn 0.5336 -0.2508 0.8077
vn 0.0054 -0.6103 0.7922
vn -0.9806 -0.1962 -0.0000
vn -0.9981 -0.0609 -0.0000
vn -0.8672 -0.4980 -0.0000
vn -0.8671 0.4981 -0.0000
vn -0.9808 0.1950 -0.0000
vn -0.9463 0.3234 -0.0000
vn -0.9981 0.0613 -0.0000
vn -0.1949 -0.9808 -0.0000
vn -0.0673 -0.9977 -0.0000
vn 0.0673 -0.9977 -0.0000
vn 0.1949 -0.9808 -0.0000
vn 0.3236 -0.9462 -0.0000
vn 0.4399 -0.8981 -0.0000
vn 0.5562 -0.8311 -0.0000
vn 0.6568 -0.7541 -0.0000
vn 0.7514 -0.6598 -0.0000
vn 0.8311 -0.5561 -0.0000
vn 0.8980 -0.4400 -0.0000
vn -0.8612 0.5082 -0.0000
vn -0.8617 -0.5074 -0.0000
vn 0.9808 0.1950 -0.0000
vn 0.9977 0.0672 -0.0000
vn 0.9978 -0.0668 -0.0000
vn 0.9806 -0.1962 -0.0000
vn 0.9469 -0.3216 -0.0000
vn 0.8671 0.4982 -0.0000
vn 0.8671 -0.4981 -0.0000
vn 0.9463 0.3234 -0.0000
vn 0.8980 0.4400 -0.0000
vn 0.8311 0.5561 -0.0000
vn 0.7514 0.6598 -0.0000
vn -0.5402 -0.3199 0.7784
vn -0.5366 -0.3151 0.7828
vn -0.0000 0.0001 -1.0000
vn 0.5561 0.8311 -0.0000
vn 0.4448 0.8956 -0.0000
vn 0.3235 0.9462 -0.0000
vn 0.1949 0.9808 -0.0000
vn 0.0612 0.9981 -0.0000
vn -0.0612 0.9981 -0.0000
vn -0.1949 0.9808 -0.0000
vn -0.3235 0.9462 -0.0000
vn -0.0000 0.0002 -1.0000
vn -0.8311 0.5561 -0.0000
vn -0.8980 0.4400 -0.0000
vn -0.7515 0.6597 -0.0000
vn -0.6567 0.7541 -0.0000
vn -0.5561 0.8311 -0.0000
vn -0.4448 0.8956 -0.0000
vn 0.6568 0.7541 -0.0000
vn -0.5396 0.3174 0.7798
vn -0.5394 -0.3188 0.7794
vn -0.0010 0.5552 0.8317
vn -0.0092 0.5685 0.8226
vn -0.5373 0.3142 0.7827
vn -0.0162 0.9999 -0.0000
vn 0.5781 0.8159 -0.0000
vn 0.3247 0.4789 0.8156
vn -0.0015 1.0000 -0.0000
vn 0.3286 0.4690 0.8198
vn -0.0000 0.5721 0.8202
vn 0.0011 0.5797 0.8148
vn 0.3093 0.4802 0.8208
vn 0.3021 0.4929 0.8160
vn -0.0000 0.5706 0.8212
vn 0.3638 -0.4406 0.8207
vn 0.3637 -0.4433 0.8192
vn 0.5431 -0.1850 0.8190
vn 0.5338 -0.2506 0.8076
vn 0.9151 -0.4033 -0.0000
vn 0.6431 -0.7658 -0.0000
vn 0.9150 -0.4033 -0.0000
vn 0.5365 -0.2482 -0.8066
vn 0.5455 -0.1858 -0.8173
vn 0.5366 -0.2483 -0.8065
vn 0.3637 -0.4444 -0.8187
vn 0.3637 -0.4433 -0.8192
vn -0.0000 -0.5727 -0.8198
vn -0.0020 -0.5709 -0.8210
vn -0.0151 -0.9999 -0.0000
vn -0.2900 -0.5112 -0.8091
vn -0.5113 -0.8594 -0.0000
vn -0.2974 -0.4882 -0.8205
vn 0.1636 -0.5621 -0.8108
vn 0.1635 -0.5684 -0.8064
vn -0.4021 -0.4362 -0.8050
vn -0.0000 0.5728 -0.8197
vn 0.3105 0.4820 -0.8193
vn 0.3031 0.4950 -0.8143
vn 0.5507 0.8347 -0.0000
vn -0.0003 0.5706 -0.8212
vn 0.5777 0.8163 -0.0000
vn 1.0000 -0.0000 0.0013
vn -0.8649 -0.5020 -0.0000
vn 0.8649 -0.5020 -0.0000
vn 0.8645 -0.5026 -0.0000
vn -0.8612 0.5083 -0.0000
vn -0.5373 -0.3145 -0.7826
vn 0.4926 0.8703 -0.0000
vn 0.3859 0.9225 -0.0000
vn 0.2784 0.9605 -0.0000
vn 0.2787 0.9604 -0.0000
vn 0.1657 0.9862 -0.0000
vn 0.0550 0.9985 -0.0000
vn -0.0549 0.9985 -0.0000
vn 0.3151 0.9491 -0.0000
vn 0.4005 0.9163 -0.0000
vn -0.0000 0.0002 1.0000
vn 0.4928 0.8701 -0.0000
vn -0.4450 0.8956 -0.0000
vn -0.4447 0.8957 -0.0000
vn 0.9470 -0.3212 -0.0000
vn -0.0000 0.0003 1.0000
vn -0.4940 0.8695 -0.0000
vn -0.3847 0.9230 -0.0000
vn -0.2784 0.9605 -0.0000
vn -0.1662 0.9861 -0.0000
vn -0.2787 0.9604 -0.0000
vn -0.1660 0.9861 -0.0000
vn 0.9468 -0.3217 -0.0000
vn -0.4936 0.8697 -0.0000
vn -0.5382 0.3139 -0.7822
vn -0.5417 0.3186 -0.7779
vn -0.0010 0.5555 -0.8315
vn -0.0092 0.5688 -0.8224
vn -0.5414 -0.3200 -0.7775
vn -0.5430 -0.3210 -0.7759
vn 0.3294 -0.4709 -0.8184
vn -0.0000 -0.5743 -0.8186
vn 0.8283 0.5603 -0.0000
vn 0.8284 -0.5602 -0.0000
vn -0.8285 -0.5600 -0.0000
vn -0.8438 0.5366 -0.0000
vn -0.8284 0.5601 -0.0000
vn 0.3282 -0.4691 0.8199
vn -0.0000 -0.5721 0.8202
vn -0.5539 0.8326 -0.0000
vn 0.0026 1.0000 -0.0000
vn -0.0005 0.5788 0.8155
vn -0.2856 0.4652 0.8379
vn -0.2714 0.4931 0.8266
vn -0.0003 0.5764 0.8171
vn -0.7193 -0.6947 -0.0000
vn 0.7193 -0.6947 -0.0000
vn -0.7192 0.6948 -0.0000
vn -0.8666 -0.4989 -0.0000
vn 0.5598 0.8286 -0.0000
vn -0.8671 -0.4981 -0.0000
vn -0.8671 0.4982 -0.0000
vn 0.3593 -0.4629 0.8103
vn 0.3666 -0.4671 0.8046
vn 0.5964 -0.0000 0.8027
vn 0.3667 -0.4671 0.8046
vn 0.3673 0.4681 0.8037
vn 0.6185 0.7858 -0.0000
vn 0.5988 -0.0000 -0.8009
vn 0.3686 -0.4682 -0.8030
vn 0.6186 -0.7857 -0.0000
vn 0.3686 -0.4682 -0.8031
vn 0.3593 -0.4629 -0.8103
vn -0.4158 -0.3911 -0.8210
vn -0.4158 -0.3911 0.8210
vn -0.0000 -0.6264 0.7795
vn -0.0000 -0.6264 -0.7795
vn -0.0062 -0.6906 -0.7232
vn -0.6062 -0.0549 -0.7934
vn -0.6064 -0.0547 -0.7933
vn -0.9976 -0.0686 -0.0000
vn -0.6050 -0.0566 0.7942
vn -0.7011 -0.7130 -0.0000
vn -0.4018 -0.4217 0.8129
vn -0.5730 0.0003 0.8195
vn 0.2894 -0.9572 -0.0000
vn 0.1636 -0.5621 0.8108
vn -0.4021 -0.4362 0.8050
vn 0.1636 -0.5660 0.8080
vn -0.2909 -0.5086 0.8104
vn -0.2974 -0.4882 0.8205
vn -0.5756 0.0003 -0.8177
vn -0.4019 -0.4264 -0.8103
vn -0.0062 -0.6903 0.7235
vn 0.7192 0.6948 -0.0000
vn -0.0003 0.5767 -0.8169
vn -0.3907 0.3918 -0.8330
vn -0.3906 0.3922 -0.8328
vn -0.7395 0.6732 -0.0000
vn -0.0007 0.5811 -0.8138
vn -0.2726 0.4953 -0.8248
vn -0.2870 0.4672 -0.8363
vn -1.0000 -0.0000 -0.0000
vn -0.7191 0.6949 -0.0000
vn 0.8671 0.4981 -0.0000
vn 0.8672 -0.4980 -0.0000
vn 0.3589 0.4632 -0.8103
vn 0.3693 0.4692 -0.8021
vn -0.0000 0.5854 -0.8108
vn -0.0021 0.5878 -0.8090
vn -0.0088 1.0000 -0.0000
vn -0.8666 -0.4990 -0.0000
vn -0.8284 0.5602 -0.0000
vn 0.3589 0.4632 0.8103
vn -0.0000 0.5854 0.8108
vn -0.3912 0.3912 0.8331
vn -0.0005 0.5860 0.8103
vn -0.3916 0.3894 0.8337
vn -0.0004 0.5681 0.8230
vn -0.7734 0.6339 -0.0000
vn -0.7115 0.7027 -0.0000
vn -0.6600 0.7512 -0.0000
vn -0.6091 0.7931 0.0004
vn -0.6471 0.7624 -0.0009
vn -0.5836 0.8121 -0.0012
vn -0.4979 0.8672 -0.0005
vn -0.5572 0.8304 0.0003
vn -0.4879 0.8729 -0.0000
vn 0.3286 0.4690 -0.8198
vn 0.3246 0.4793 -0.8154
vn -0.0000 0.5721 -0.8202
vn -0.9469 -0.3216 -0.0000
vn 0.2397 0.9709 -0.0000
vn 0.1661 0.9861 -0.0000
vn 0.0990 0.9951 -0.0000
vn 0.3155 0.9489 -0.0000
vn 0.5978 0.8017 -0.0000
vn 0.7866 0.6175 -0.0000
vn 0.6954 0.7186 -0.0000
vn 0.9733 0.2297 -0.0000
vn 0.9282 0.3721 -0.0000
vn 0.9733 0.2294 -0.0000
vn 0.9970 0.0769 -0.0000
vn 0.8647 0.5022 -0.0000
vn 0.9284 0.3716 -0.0000
vn 0.9970 -0.0769 -0.0000
vn 0.9733 -0.2297 -0.0000
vn 0.9282 -0.3721 -0.0000
vn 0.9284 -0.3716 -0.0000
vn 0.9733 -0.2294 -0.0000
vn -0.8645 -0.5026 -0.0000
vn 0.3155 -0.9489 -0.0000
vn 0.3151 -0.9491 -0.0000
vn 0.2383 -0.9712 -0.0000
vn 0.4005 -0.9163 -0.0000
vn -0.9740 -0.2266 -0.0000
vn -0.9739 -0.2269 -0.0000
vn -0.9282 -0.3721 -0.0000
vn -0.9284 -0.3716 -0.0000
vn -0.0989 -0.9951 -0.0000
vn -0.0331 -0.9995 -0.0000
vn -0.1662 -0.9861 -0.0000
vn 0.0331 -0.9995 -0.0000
vn 0.0990 -0.9951 -0.0000
vn 0.0991 -0.9951 -0.0000
vn 0.1661 -0.9861 -0.0000
vn 0.0330 -0.9995 -0.0000
vn 0.0014 0.5821 -0.8131
vn -0.0020 -0.5709 0.8210
vn 0.0052 -0.6107 -0.7918
vn -0.0000 -0.5727 0.8198
vn 0.5785 0.8157 -0.0000
vn 0.8286 0.5598 -0.0000
vn 0.8280 0.5607 -0.0000
vn 0.8287 0.5596 -0.0000
vn -0.3159 0.9488 -0.0000
vn -0.0989 0.9951 -0.0000
vn 0.0991 0.9951 -0.0000
s 0
usemtl Material.001
f 1//1 2//1 4//1
f 1//1 3//1 2//1
f 5//2 3//2 1//2
f 10//3 1//3 4//3
f 5//3 1//3 14//3
f 8//3 1//3 6//3
f 6//3 1//3 7//3
f 10//3 7//3 1//3
f 9//3 1//3 8//3
f 11//3 1//3 9//3
f 1//3 11//3 12//3
f 12//3 13//3 1//3
f 13//3 14//3 1//3
f 17//4 14//4 15//4
f 15//5 14//5 16//5
f 14//5 13//5 16//5
f 17//4 18//4 14//4
f 14//3 18//3 5//3
f 18//3 20//3 19//3
f 19//3 5//3 18//3
f 18//6 17//6 20//6
f 21//3 19//3 20//3
f 24//3 21//3 20//3
f 22//6 20//6 17//6
f 23//7 20//7 22//7
f 23//7 24//7 20//7
f 24//3 25//3 21//3
f 24//8 26//8 25//8
f 24//8 23//8 26//8
f 26//9 28//9 27//9
f 27//10 29//10 26//10
f 25//10 26//10 29//10
f 23//9 28//9 26//9
f 25//3 29//3 30//3
f 32//3 30//3 29//3
f 29//11 27//11 31//11
f 31//3 32//3 29//3
f 58//3 32//3 33//3
f 34//3 33//3 32//3
f 32//3 57//3 34//3
f 55//3 30//3 32//3
f 31//3 38//3 32//3
f 37//3 35//3 32//3
f 35//3 36//3 32//3
f 36//3 57//3 32//3
f 38//3 37//3 32//3
f 39//3 53//3 32//3
f 39//3 32//3 40//3
f 52//3 40//3 32//3
f 32//12 41//12 48//12
f 41//3 32//3 42//3
f 32//3 43//3 42//3
f 43//3 32//3 46//3
f 46//3 32//3 44//3
f 44//3 32//3 45//3
f 47//3 45//3 32//3
f 49//3 47//3 32//3
f 56//12 32//12 48//12
f 32//3 50//3 49//3
f 50//3 32//3 51//3
f 58//3 51//3 32//3
f 32//13 56//13 52//13
f 53//3 54//3 32//3
f 54//3 55//3 32//3
f 61//14 58//14 59//14
f 59//14 58//14 33//14
f 60//15 58//15 61//15
f 60//15 51//15 58//15
f 61//3 59//3 63//3
f 61//3 62//3 64//3
f 61//3 63//3 62//3
f 60//3 61//3 64//3
f 66//16 64//16 62//16
f 60//3 64//3 67//3
f 65//16 67//16 64//16
f 65//16 64//16 66//16
f 68//3 60//3 67//3
f 68//3 67//3 69//3
f 65//16 69//16 67//16
f 65//16 70//16 69//16
f 71//3 69//3 70//3
f 71//3 68//3 69//3
f 72//17 47//17 71//17
f 47//17 49//17 71//17
f 71//18 49//18 50//18
f 72//3 71//3 70//3
f 71//18 50//18 68//18
f 73//19 47//19 72//19
f 73//3 72//3 74//3
f 72//3 70//3 74//3
f 73//3 74//3 75//3
f 65//16 74//16 70//16
f 65//16 75//16 74//16
f 77//3 73//3 75//3
f 65//16 76//16 75//16
f 77//3 75//3 76//3
f 46//20 77//20 78//20
f 78//3 77//3 76//3
f 77//21 45//21 73//21
f 77//21 44//21 45//21
f 77//22 46//22 44//22
f 81//3 78//3 79//3
f 79//3 78//3 80//3
f 78//3 76//3 80//3
f 46//23 78//23 81//23
f 82//3 83//3 81//3
f 82//3 81//3 79//3
f 43//24 81//24 83//24
f 46//23 81//23 43//23
f 83//25 82//25 42//25
f 43//26 83//26 42//26
f 84//27 82//27 79//27
f 84//25 42//25 82//25
f 84//28 79//28 85//28
f 41//3 84//3 85//3
f 41//3 42//3 84//3
f 85//29 79//29 86//29
f 41//3 85//3 86//3
f 88//30 86//30 79//30
f 86//31 87//31 89//31
f 86//31 88//31 87//31
f 86//3 89//3 41//3
f 89//32 87//32 91//32
f 90//3 41//3 89//3
f 89//33 91//33 90//33
f 91//34 94//34 92//34
f 93//3 91//3 92//3
f 91//3 87//3 94//3
f 90//35 91//35 93//35
f 65//16 92//16 94//16
f 65//16 94//16 95//16
f 87//3 95//3 94//3
f 87//3 88//3 95//3
f 88//3 96//3 95//3
f 65//16 95//16 96//16
f 88//3 79//3 96//3
f 79//3 80//3 96//3
f 65//16 96//16 80//16
f 99//36 93//36 97//36
f 97//3 93//3 98//3
f 93//34 92//34 98//34
f 90//37 93//37 99//37
f 99//3 100//3 41//3
f 99//38 97//38 100//38
f 99//3 41//3 90//3
f 101//39 100//39 102//39
f 100//3 101//3 41//3
f 97//39 102//39 100//39
f 102//40 104//40 103//40
f 105//3 102//3 103//3
f 101//41 102//41 105//41
f 102//3 97//3 104//3
f 107//3 105//3 106//3
f 106//3 105//3 109//3
f 107//42 108//42 105//42
f 110//42 105//42 108//42
f 105//3 103//3 109//3
f 101//41 105//41 110//41
f 110//3 41//3 101//3
f 108//3 41//3 110//3
f 103//16 65//16 109//16
f 109//16 65//16 111//16
f 106//3 109//3 111//3
f 65//16 112//16 111//16
f 111//16 112//16 113//16
f 106//3 111//3 113//3
f 114//3 106//3 113//3
f 114//43 113//43 115//43
f 116//16 115//16 113//16
f 112//16 116//16 113//16
f 117//44 116//44 118//44
f 117//45 119//45 116//45
f 115//16 116//16 120//16
f 118//16 116//16 112//16
f 116//16 119//16 121//16
f 120//16 116//16 121//16
f 122//9 120//9 121//9
f 123//9 122//9 121//9
f 123//9 121//9 124//9
f 121//16 119//16 124//16
f 123//9 124//9 125//9
f 119//16 125//16 124//16
f 126//9 123//9 125//9
f 126//9 125//9 127//9
f 127//16 125//16 119//16
f 130//9 126//9 127//9
f 127//16 129//16 128//16
f 130//9 127//9 128//9
f 127//16 119//16 129//16
f 133//13 131//13 130//13
f 131//12 132//12 130//12
f 126//12 130//12 132//12
f 130//9 136//9 133//9
f 138//9 130//9 134//9
f 134//9 130//9 135//9
f 135//9 130//9 128//9
f 136//9 130//9 137//9
f 137//9 130//9 140//9
f 139//9 130//9 138//9
f 140//9 130//9 139//9
f 141//46 140//46 142//46
f 141//46 137//46 140//46
f 140//47 139//47 142//47
f 142//3 144//3 141//3
f 143//47 142//47 139//47
f 143//3 144//3 142//3
f 145//48 148//48 144//48
f 144//49 146//49 145//49
f 146//3 144//3 150//3
f 147//3 152//3 144//3
f 147//48 144//48 148//48
f 154//3 149//3 144//3
f 149//3 150//3 144//3
f 141//3 144//3 151//3
f 151//3 144//3 152//3
f 153//3 144//3 143//3
f 154//3 144//3 153//3
f 153//50 138//50 154//50
f 154//51 134//51 135//51
f 134//50 154//50 138//50
f 135//51 149//51 154//51
f 143//52 139//52 153//52
f 139//52 138//52 153//52
f 152//3 147//3 155//3
f 156//10 152//10 155//10
f 152//11 156//11 151//11
f 155//10 157//10 156//10
f 157//9 133//9 156//9
f 136//11 151//11 156//11
f 156//9 133//9 136//9
f 157//8 155//8 158//8
f 158//9 133//9 157//9
f 158//8 155//8 159//8
f 158//7 159//7 160//7
f 160//9 133//9 158//9
f 160//6 162//6 161//6
f 161//9 133//9 160//9
f 159//7 162//7 160//7
f 159//3 147//3 162//3
f 162//3 147//3 163//3
f 163//6 161//6 162//6
f 163//4 164//4 165//4
f 163//3 147//3 164//3
f 161//4 163//4 165//4
f 167//9 166//9 165//9
f 165//9 166//9 161//9
f 164//5 168//5 165//5
f 168//5 167//5 165//5
f 168//3 164//3 147//3
f 168//3 147//3 169//3
f 167//53 168//53 169//53
f 169//3 147//3 172//3
f 171//54 169//54 170//54
f 172//54 170//54 169//54
f 169//53 171//53 167//53
f 147//3 174//3 172//3
f 172//55 173//55 175//55
f 173//3 172//3 174//3
f 172//55 175//55 170//55
f 178//9 176//9 175//9
f 175//9 176//9 170//9
f 175//56 177//56 178//56
f 175//56 173//56 177//56
f 177//57 179//57 178//57
f 179//9 176//9 178//9
f 180//57 179//57 177//57
f 179//58 180//58 181//58
f 181//58 182//58 179//58
f 182//9 176//9 179//9
f 182//59 184//59 183//59
f 182//9 183//9 176//9
f 182//59 181//59 184//59
f 184//60 185//60 186//60
f 184//3 174//3 185//3
f 184//3 181//3 174//3
f 183//60 184//60 186//60
f 186//61 185//61 187//61
f 188//9 176//9 186//9
f 186//9 176//9 183//9
f 186//61 187//61 188//61
f 190//62 188//62 189//62
f 187//62 189//62 188//62
f 190//9 176//9 188//9
f 189//63 191//63 190//63
f 176//9 190//9 192//9
f 191//9 192//9 190//9
f 192//64 193//64 176//64
f 193//65 192//65 194//65
f 192//65 195//65 194//65
f 192//9 196//9 195//9
f 198//9 196//9 192//9
f 202//9 197//9 192//9
f 197//9 198//9 192//9
f 199//9 192//9 191//9
f 200//9 192//9 199//9
f 201//9 192//9 200//9
f 201//9 202//9 192//9
f 203//66 197//66 202//66
f 201//67 204//67 202//67
f 203//67 202//67 204//67
f 204//3 205//3 203//3
f 206//3 205//3 204//3
f 204//68 201//68 206//68
f 207//3 205//3 206//3
f 199//69 207//69 206//69
f 200//68 206//68 201//68
f 199//69 206//69 200//69
f 208//70 207//70 199//70
f 207//3 208//3 205//3
f 189//63 208//63 191//63
f 208//34 189//34 205//34
f 191//70 208//70 199//70
f 211//71 209//71 205//71
f 210//71 205//71 209//71
f 210//3 214//3 205//3
f 212//72 211//72 205//72
f 212//72 205//72 174//72
f 215//3 205//3 213//3
f 213//40 205//40 214//40
f 203//3 205//3 215//3
f 174//3 205//3 189//3
f 203//66 215//66 197//66
f 197//73 215//73 213//73
f 216//3 214//3 210//3
f 198//74 213//74 214//74
f 214//75 216//75 217//75
f 214//74 196//74 198//74
f 214//75 217//75 196//75
f 216//76 218//76 217//76
f 219//76 217//76 218//76
f 217//9 219//9 221//9
f 196//9 217//9 220//9
f 217//9 221//9 220//9
f 219//9 222//9 221//9
f 223//16 221//16 222//16
f 223//16 220//16 221//16
f 226//16 224//16 223//16
f 193//77 223//77 224//77
f 223//16 225//16 220//16
f 193//78 225//78 223//78
f 226//16 223//16 227//16
f 223//16 228//16 227//16
f 223//16 229//16 228//16
f 223//16 230//16 229//16
f 223//16 231//16 230//16
f 223//16 232//16 231//16
f 223//16 222//16 232//16
f 233//9 232//9 222//9
f 233//9 234//9 232//9
f 234//79 231//79 232//79
f 233//80 236//80 234//80
f 234//9 235//9 231//9
f 237//81 235//81 234//81
f 238//80 234//80 236//80
f 237//81 234//81 238//81
f 236//3 210//3 238//3
f 237//3 238//3 210//3
f 235//82 237//82 239//82
f 210//3 239//3 237//3
f 240//83 242//83 239//83
f 239//3 210//3 240//3
f 235//82 239//82 241//82
f 241//83 239//83 242//83
f 243//84 242//84 244//84
f 242//9 243//9 228//9
f 241//9 242//9 229//9
f 242//9 228//9 229//9
f 240//84 244//84 242//84
f 243//85 244//85 245//85
f 244//3 146//3 245//3
f 240//3 210//3 244//3
f 146//3 244//3 210//3
f 246//86 248//86 245//86
f 246//3 245//3 146//3
f 243//85 245//85 247//85
f 247//86 245//86 248//86
f 249//87 248//87 246//87
f 249//87 250//87 248//87
f 248//9 250//9 252//9
f 247//9 248//9 251//9
f 248//9 252//9 251//9
f 250//9 253//9 252//9
f 129//16 252//16 253//16
f 129//16 251//16 252//16
f 250//9 254//9 253//9
f 254//79 255//79 253//79
f 129//16 253//16 255//16
f 254//9 256//9 255//9
f 256//79 257//79 255//79
f 129//16 255//16 257//16
f 256//9 258//9 257//9
f 129//16 257//16 258//16
f 256//9 259//9 258//9
f 129//16 258//16 260//16
f 259//9 260//9 258//9
f 129//16 260//16 262//16
f 259//9 261//9 260//9
f 261//88 262//88 260//88
f 263//9 264//9 262//9
f 261//9 263//9 262//9
f 129//16 262//16 264//16
f 263//9 135//9 264//9
f 129//16 264//16 128//16
f 135//9 128//9 264//9
f 150//89 263//89 265//89
f 263//89 261//89 265//89
f 149//90 263//90 150//90
f 149//90 135//90 263//90
f 261//91 259//91 265//91
f 266//91 265//91 259//91
f 265//3 266//3 146//3
f 146//3 150//3 265//3
f 266//92 259//92 267//92
f 267//3 146//3 266//3
f 267//93 256//93 268//93
f 268//3 146//3 267//3
f 256//92 267//92 259//92
f 249//3 146//3 268//3
f 268//94 250//94 249//94
f 256//93 254//93 268//93
f 268//94 254//94 250//94
f 129//16 226//16 251//16
f 247//79 251//79 226//79
f 246//3 146//3 249//3
f 243//9 247//9 226//9
f 243//79 227//79 228//79
f 243//9 226//9 227//9
f 235//9 241//9 230//9
f 241//79 229//79 230//79
f 218//3 210//3 236//3
f 236//95 219//95 218//95
f 236//95 233//95 219//95
f 235//9 230//9 231//9
f 219//9 233//9 222//9
f 226//16 272//16 224//16
f 226//16 269//16 271//16
f 129//16 269//16 226//16
f 226//16 271//16 270//16
f 226//16 270//16 272//16
f 209//3 272//3 270//3
f 209//3 273//3 272//3
f 273//34 224//34 272//34
f 193//96 273//96 274//96
f 274//3 273//3 212//3
f 211//3 273//3 209//3
f 273//97 193//97 224//97
f 273//3 211//3 212//3
f 275//3 274//3 212//3
f 275//98 276//98 274//98
f 277//99 274//99 276//99
f 193//100 274//100 277//100
f 277//64 176//64 193//64
f 277//101 276//101 176//101
f 276//102 278//102 166//102
f 276//101 166//101 176//101
f 279//103 276//103 275//103
f 279//102 278//102 276//102
f 279//104 282//104 280//104
f 280//102 278//102 279//102
f 279//105 275//105 281//105
f 281//106 283//106 279//106
f 279//107 283//107 282//107
f 287//108 284//108 283//108
f 283//109 284//109 282//109
f 283//3 281//3 285//3
f 285//3 286//3 283//3
f 283//3 286//3 287//3
f 288//110 284//110 287//110
f 288//3 287//3 289//3
f 290//3 289//3 287//3
f 291//3 290//3 287//3
f 291//3 287//3 292//3
f 292//3 287//3 286//3
f 294//111 293//111 292//111
f 293//112 291//112 292//112
f 292//113 117//113 294//113
f 117//3 292//3 286//3
f 294//114 117//114 118//114
f 294//115 118//115 296//115
f 294//116 295//116 293//116
f 295//117 294//117 296//117
f 295//117 296//117 297//117
f 296//13 118//13 297//13
f 295//118 297//118 112//118
f 297//16 118//16 112//16
f 300//116 293//116 295//116
f 298//119 299//119 295//119
f 298//120 295//120 112//120
f 295//121 299//121 300//121
f 299//122 301//122 300//122
f 302//123 300//123 301//123
f 300//124 302//124 304//124
f 293//125 300//125 303//125
f 304//125 303//125 300//125
f 306//126 305//126 304//126
f 304//127 305//127 303//127
f 304//128 302//128 306//128
f 306//9 302//9 308//9
f 306//129 308//129 307//129
f 307//130 305//130 306//130
f 307//131 308//131 309//131
f 308//9 310//9 309//9
f 310//9 308//9 311//9
f 302//9 311//9 308//9
f 311//132 314//132 310//132
f 301//9 311//9 302//9
f 301//9 299//9 311//9
f 299//9 312//9 311//9
f 313//9 311//9 312//9
f 314//133 311//133 313//133
f 315//12 317//12 314//12
f 314//12 318//12 315//12
f 316//134 314//134 313//134
f 314//135 316//135 318//135
f 310//136 314//136 317//136
f 318//3 319//3 315//3
f 320//3 319//3 318//3
f 320//135 318//135 316//135
f 321//3 319//3 320//3
f 320//104 316//104 322//104
f 320//3 322//3 321//3
f 323//104 322//104 316//104
f 326//102 322//102 323//102
f 325//3 321//3 322//3
f 322//3 324//3 325//3
f 326//3 324//3 322//3
f 330//137 326//137 327//137
f 327//102 326//102 328//102
f 326//102 323//102 328//102
f 326//138 329//138 324//138
f 329//13 326//13 330//13
f 329//3 330//3 331//3
f 327//3 331//3 330//3
f 344//3 332//3 331//3
f 332//3 343//3 331//3
f 333//3 335//3 331//3
f 343//3 333//3 331//3
f 336//3 331//3 334//3
f 334//3 331//3 335//3
f 338//3 331//3 336//3
f 340//3 331//3 10//3
f 10//3 331//3 337//3
f 337//3 331//3 342//3
f 338//3 342//3 331//3
f 327//3 339//3 331//3
f 345//3 331//3 339//3
f 340//139 341//139 331//139
f 341//12 329//12 331//12
f 345//3 344//3 331//3
f 345//3 339//3 346//3
f 346//12 348//12 345//12
f 345//140 347//140 344//140
f 345//141 349//141 347//141
f 349//12 345//12 348//12
f 349//3 348//3 347//3
f 348//142 346//142 353//142
f 347//3 348//3 350//3
f 350//3 348//3 352//3
f 352//3 348//3 351//3
f 348//3 353//3 351//3
f 353//65 354//65 359//65
f 354//64 353//64 346//64
f 358//3 353//3 355//3
f 355//3 353//3 356//3
f 356//3 353//3 361//3
f 357//3 351//3 353//3
f 357//3 353//3 358//3
f 353//3 359//3 362//3
f 360//3 353//3 362//3
f 360//3 361//3 353//3
f 362//16 367//16 363//16
f 362//16 363//16 366//16
f 364//16 365//16 362//16
f 364//16 362//16 366//16
f 360//3 362//3 365//3
f 362//16 359//16 367//16
f 354//65 363//65 367//65
f 354//65 367//65 359//65
f 354//143 366//143 363//143
f 354//143 364//143 366//143
f 368//3 360//3 365//3
f 368//3 365//3 369//3
f 364//16 369//16 365//16
f 371//3 368//3 369//3
f 364//16 370//16 369//16
f 371//3 369//3 370//3
f 10//144 371//144 372//144
f 372//145 371//145 373//145
f 10//144 368//144 371//144
f 373//3 371//3 370//3
f 372//145 373//145 377//145
f 374//146 376//146 373//146
f 374//3 373//3 375//3
f 373//3 370//3 375//3
f 377//147 373//147 376//147
f 377//3 376//3 10//3
f 372//3 377//3 10//3
f 379//148 378//148 376//148
f 378//40 10//40 376//40
f 379//148 376//148 374//148
f 379//3 381//3 380//3
f 383//3 379//3 380//3
f 379//3 374//3 381//3
f 382//149 378//149 379//149
f 382//149 379//149 383//149
f 384//150 382//150 383//150
f 384//3 383//3 385//3
f 383//3 380//3 385//3
f 364//16 386//16 385//16
f 364//16 385//16 380//16
f 384//3 385//3 386//3
f 387//3 384//3 386//3
f 387//3 386//3 388//3
f 364//16 388//16 386//16
f 389//40 388//40 390//40
f 389//3 387//3 388//3
f 364//16 390//16 388//16
f 392//3 389//3 390//3
f 364//16 391//16 390//16
f 392//3 390//3 391//3
f 393//3 392//3 391//3
f 392//76 393//76 395//76
f 395//75 394//75 392//75
f 394//75 389//75 392//75
f 396//9 397//9 395//9
f 396//76 395//76 393//76
f 395//9 397//9 394//9
f 398//9 406//9 397//9
f 398//9 397//9 402//9
f 405//9 397//9 396//9
f 397//12 404//12 399//12
f 399//71 401//71 397//71
f 401//9 394//9 397//9
f 404//9 397//9 400//9
f 403//9 400//9 397//9
f 402//9 397//9 405//9
f 406//9 403//9 397//9
f 407//83 403//83 406//83
f 407//83 406//83 408//83
f 408//82 406//82 409//82
f 398//82 409//82 406//82
f 409//81 398//81 402//81
f 409//81 402//81 410//81
f 409//3 410//3 412//3
f 409//3 412//3 411//3
f 408//3 409//3 411//3
f 364//16 411//16 412//16
f 364//16 412//16 413//16
f 410//3 413//3 412//3
f 364//16 413//16 414//16
f 410//3 415//3 413//3
f 415//3 414//3 413//3
f 410//80 402//80 415//80
f 405//80 415//80 402//80
f 415//95 405//95 396//95
f 415//95 396//95 393//95
f 415//3 393//3 414//3
f 393//3 391//3 414//3
f 364//16 414//16 391//16
f 364//16 416//16 411//16
f 408//3 411//3 416//3
f 364//16 417//16 416//16
f 407//3 416//3 417//3
f 407//3 408//3 416//3
f 418//16 417//16 364//16
f 419//3 417//3 418//3
f 419//3 407//3 417//3
f 400//85 419//85 420//85
f 400//84 407//84 419//84
f 421//85 420//85 419//85
f 421//3 419//3 422//3
f 419//34 418//34 422//34
f 66//16 423//16 422//16
f 421//40 422//40 423//40
f 66//16 422//16 418//16
f 424//3 421//3 423//3
f 424//3 423//3 425//3
f 66//16 425//16 423//16
f 426//3 425//3 427//3
f 426//3 424//3 425//3
f 66//16 427//16 425//16
f 429//3 426//3 427//3
f 66//16 428//16 427//16
f 429//3 427//3 428//3
f 432//3 426//3 429//3
f 431//151 430//151 429//151
f 429//152 430//152 432//152
f 431//3 429//3 428//3
f 433//153 426//153 432//153
f 432//154 434//154 433//154
f 434//152 432//152 430//152
f 436//154 433//154 434//154
f 434//40 430//40 435//40
f 436//3 434//3 435//3
f 433//155 436//155 426//155
f 426//94 436//94 437//94
f 435//156 438//156 436//156
f 437//94 436//94 438//94
f 438//9 439//9 404//9
f 438//93 435//93 439//93
f 437//9 438//9 404//9
f 440//93 439//93 435//93
f 441//92 439//92 440//92
f 441//92 442//92 439//92
f 439//9 442//9 404//9
f 444//91 442//91 441//91
f 443//9 404//9 442//9
f 443//91 442//91 444//91
f 441//3 430//3 444//3
f 444//3 445//3 446//3
f 445//3 444//3 430//3
f 444//89 446//89 443//89
f 446//90 447//90 448//90
f 446//3 445//3 447//3
f 448//89 443//89 446//89
f 449//90 448//90 447//90
f 449//9 450//9 448//9
f 443//9 448//9 404//9
f 404//9 448//9 450//9
f 451//9 454//9 450//9
f 451//9 450//9 457//9
f 450//9 449//9 458//9
f 450//9 27//9 28//9
f 452//9 27//9 450//9
f 453//9 452//9 450//9
f 453//9 450//9 454//9
f 455//49 404//49 450//49
f 456//48 455//48 450//48
f 450//48 28//48 456//48
f 458//9 457//9 450//9
f 57//51 458//51 447//51
f 449//51 447//51 458//51
f 57//50 457//50 458//50
f 36//50 457//50 57//50
f 35//52 457//52 36//52
f 35//52 451//52 457//52
f 455//9 456//9 459//9
f 456//9 460//9 459//9
f 456//9 461//9 460//9
f 456//16 462//16 461//16
f 456//16 28//16 462//16
f 462//72 401//72 461//72
f 462//9 465//9 401//9
f 463//9 462//9 464//9
f 471//9 462//9 463//9
f 468//9 464//9 462//9
f 462//9 466//9 465//9
f 466//9 462//9 467//9
f 471//9 467//9 462//9
f 469//9 468//9 462//9
f 469//9 462//9 470//9
f 28//9 470//9 462//9
f 471//60 472//60 467//60
f 471//60 473//60 472//60
f 463//59 473//59 471//59
f 473//3 10//3 472//3
f 7//40 10//40 473//40
f 463//59 7//59 473//59
f 474//61 466//61 472//61
f 472//3 10//3 474//3
f 467//61 472//61 466//61
f 475//3 474//3 10//3
f 466//62 474//62 475//62
f 465//63 475//63 476//63
f 475//3 10//3 476//3
f 466//62 475//62 465//62
f 478//157 476//157 477//157
f 476//158 479//158 477//158
f 479//3 476//3 10//3
f 465//63 476//63 478//63
f 479//159 480//159 477//159
f 480//160 479//160 482//160
f 481//3 479//3 10//3
f 481//160 482//160 479//160
f 482//3 483//3 480//3
f 482//161 481//161 486//161
f 483//3 482//3 484//3
f 485//3 484//3 482//3
f 486//3 485//3 482//3
f 384//3 487//3 486//3
f 489//3 486//3 487//3
f 485//3 486//3 489//3
f 486//162 488//162 384//162
f 490//163 486//163 481//163
f 486//164 490//164 488//164
f 481//3 10//3 490//3
f 490//3 10//3 488//3
f 489//66 487//66 491//66
f 489//67 491//67 485//67
f 491//9 492//9 401//9
f 492//66 491//66 487//66
f 493//67 485//67 491//67
f 493//9 491//9 401//9
f 494//68 485//68 493//68
f 493//9 401//9 494//9
f 484//69 494//69 483//69
f 485//68 494//68 484//68
f 495//69 483//69 494//69
f 494//9 401//9 495//9
f 478//70 477//70 495//70
f 495//70 477//70 483//70
f 495//9 401//9 478//9
f 492//73 487//73 496//73
f 492//9 496//9 401//9
f 496//9 394//9 401//9
f 496//74 387//74 394//74
f 387//73 496//73 487//73
f 384//150 488//150 382//150
f 488//3 10//3 382//3
f 487//34 384//34 387//34
f 497//3 480//3 483//3
f 497//165 483//165 477//165
f 497//166 477//166 480//166
f 478//9 401//9 465//9
f 470//55 11//55 469//55
f 470//9 28//9 498//9
f 498//54 11//54 470//54
f 498//53 16//53 12//53
f 498//54 12//54 11//54
f 28//9 16//9 498//9
f 469//56 9//56 468//56
f 9//55 469//55 11//55
f 464//57 468//57 6//57
f 8//56 468//56 9//56
f 8//57 6//57 468//57
f 464//58 6//58 463//58
f 7//58 463//58 6//58
f 499//72 461//72 401//72
f 499//9 500//9 461//9
f 501//9 461//9 500//9
f 460//9 461//9 501//9
f 501//167 354//167 502//167
f 501//168 500//168 354//168
f 328//169 460//169 501//169
f 502//170 328//170 501//170
f 502//64 346//64 339//64
f 354//64 346//64 502//64
f 502//101 339//101 328//101
f 354//171 500//171 364//171
f 499//9 399//9 500//9
f 500//172 503//172 364//172
f 500//9 399//9 503//9
f 399//9 504//9 503//9
f 418//16 364//16 503//16
f 418//16 503//16 504//16
f 399//9 505//9 504//9
f 418//16 504//16 505//16
f 399//9 506//9 505//9
f 506//9 507//9 505//9
f 418//16 505//16 507//16
f 508//79 509//79 507//79
f 506//9 508//9 507//9
f 418//16 507//16 509//16
f 508//173 66//173 509//173
f 66//16 418//16 509//16
f 508//174 298//174 66//174
f 298//9 508//9 510//9
f 511//9 510//9 508//9
f 455//9 508//9 506//9
f 508//9 455//9 512//9
f 511//9 508//9 512//9
f 108//175 512//175 48//175
f 513//175 48//175 512//175
f 514//176 325//176 512//176
f 513//176 512//176 325//176
f 512//175 108//175 511//175
f 512//9 459//9 514//9
f 459//9 512//9 455//9
f 515//16 325//16 514//16
f 514//9 459//9 515//9
f 312//177 319//177 515//177
f 321//177 515//177 319//177
f 313//9 515//9 459//9
f 515//9 313//9 312//9
f 321//16 325//16 515//16
f 324//3 56//3 513//3
f 325//3 324//3 513//3
f 48//3 513//3 56//3
f 510//12 511//12 516//12
f 106//12 516//12 511//12
f 106//175 511//175 108//175
f 517//178 518//178 516//178
f 516//3 106//3 517//3
f 518//12 519//12 516//12
f 510//12 516//12 519//12
f 519//179 520//179 510//179
f 519//179 286//179 520//179
f 286//3 519//3 117//3
f 522//3 117//3 519//3
f 519//3 521//3 522//3
f 519//12 518//12 521//12
f 522//3 524//3 145//3
f 145//3 523//3 522//3
f 522//3 523//3 269//3
f 522//180 269//180 129//180
f 522//181 129//181 119//181
f 117//181 522//181 119//181
f 524//3 522//3 521//3
f 145//3 524//3 281//3
f 527//176 525//176 524//176
f 526//176 524//176 525//176
f 524//175 132//175 527//175
f 524//175 521//175 132//175
f 524//3 526//3 281//3
f 525//9 527//9 280//9
f 131//9 280//9 527//9
f 132//9 131//9 527//9
f 526//3 285//3 281//3
f 285//16 526//16 528//16
f 526//16 525//16 528//16
f 529//9 528//9 530//9
f 528//177 529//177 286//177
f 530//9 528//9 280//9
f 525//9 280//9 528//9
f 528//177 286//177 285//177
f 530//9 531//9 529//9
f 530//104 280//104 282//104
f 282//135 531//135 530//135
f 282//135 284//135 531//135
f 284//12 532//12 531//12
f 531//9 532//9 529//9
f 284//12 533//12 532//12
f 533//182 536//182 532//182
f 534//9 520//9 532//9
f 535//9 534//9 532//9
f 529//9 532//9 520//9
f 535//182 532//182 536//182
f 535//183 536//183 538//183
f 539//184 537//184 536//184
f 537//183 538//183 536//183
f 539//185 536//185 533//185
f 543//3 539//3 540//3
f 539//3 541//3 540//3
f 288//3 541//3 539//3
f 539//186 533//186 288//186
f 542//187 537//187 539//187
f 542//3 539//3 544//3
f 543//3 544//3 539//3
f 544//3 545//3 542//3
f 546//188 545//188 544//188
f 544//16 543//16 546//16
f 546//188 547//188 545//188
f 546//9 538//9 547//9
f 546//9 548//9 538//9
f 548//16 546//16 543//16
f 534//189 548//189 543//189
f 548//9 534//9 535//9
f 535//9 538//9 548//9
f 551//9 547//9 549//9
f 552//9 549//9 547//9
f 550//9 552//9 547//9
f 538//9 550//9 547//9
f 547//190 551//190 545//190
f 549//9 552//9 553//9
f 554//9 553//9 552//9
f 554//191 552//191 555//191
f 555//192 552//192 550//192
f 555//192 550//192 556//192
f 556//3 558//3 555//3
f 554//191 555//191 557//191
f 557//193 555//193 560//193
f 555//3 558//3 559//3
f 559//193 560//193 555//193
f 557//3 560//3 561//3
f 561//3 560//3 564//3
f 560//3 562//3 564//3
f 562//194 560//194 563//194
f 559//194 563//194 560//194
f 564//195 565//195 568//195
f 564//3 562//3 565//3
f 566//196 564//196 569//196
f 566//197 570//197 564//197
f 561//197 564//197 570//197
f 564//196 567//196 569//196
f 564//198 568//198 567//198
f 570//199 571//199 561//199
f 571//200 570//200 553//200
f 570//200 572//200 553//200
f 570//13 573//13 572//13
f 573//13 570//13 566//13
f 573//201 574//201 572//201
f 574//202 573//202 575//202
f 573//202 576//202 575//202
f 573//203 577//203 576//203
f 573//203 566//203 577//203
f 577//12 569//12 576//12
f 566//203 569//203 577//203
f 576//16 569//16 575//16
f 574//204 575//204 578//204
f 575//16 567//16 578//16
f 569//16 567//16 575//16
f 574//205 578//205 579//205
f 578//16 568//16 579//16
f 567//16 568//16 578//16
f 574//9 579//9 580//9
f 579//16 565//16 580//16
f 568//16 565//16 579//16
f 580//16 581//16 583//16
f 565//16 581//16 580//16
f 582//9 574//9 580//9
f 582//9 580//9 583//9
f 581//16 584//16 583//16
f 585//9 582//9 583//9
f 583//16 584//16 586//16
f 585//9 583//9 586//9
f 584//16 587//16 586//16
f 586//16 587//16 588//16
f 585//9 586//9 588//9
f 589//9 585//9 588//9
f 589//206 588//206 590//206
f 587//16 591//16 588//16
f 588//16 591//16 590//16
f 592//207 593//207 591//207
f 592//3 591//3 587//3
f 591//16 593//16 590//16
f 594//208 595//208 593//208
f 592//208 594//208 593//208
f 593//16 595//16 596//16
f 590//16 593//16 596//16
f 597//209 589//209 596//209
f 597//210 596//210 598//210
f 589//209 590//209 596//209
f 596//16 595//16 598//16
f 597//211 598//211 600//211
f 598//16 599//16 600//16
f 595//16 599//16 598//16
f 601//212 597//212 600//212
f 599//16 602//16 600//16
f 601//213 600//213 602//213
f 601//213 602//213 603//213
f 599//16 603//16 602//16
f 604//214 603//214 599//214
f 604//213 601//213 603//213
f 604//215 605//215 601//215
f 605//216 604//216 541//216
f 604//217 594//217 541//217
f 594//214 604//214 599//214
f 307//218 605//218 305//218
f 607//218 305//218 605//218
f 605//219 289//219 606//219
f 541//220 289//220 605//220
f 606//221 607//221 605//221
f 307//215 601//215 605//215
f 607//127 303//127 305//127
f 303//222 607//222 606//222
f 606//3 289//3 290//3
f 303//223 606//223 290//223
f 309//224 597//224 601//224
f 309//225 601//225 307//225
f 594//226 599//226 595//226
f 608//9 597//9 609//9
f 610//9 597//9 608//9
f 597//9 309//9 609//9
f 610//9 589//9 597//9
f 610//9 612//9 589//9
f 611//190 610//190 551//190
f 613//190 551//190 610//190
f 612//190 610//190 611//190
f 610//12 608//12 614//12
f 610//12 614//12 613//12
f 608//227 615//227 614//227
f 540//227 614//227 615//227
f 614//3 540//3 594//3
f 614//3 594//3 613//3
f 617//227 615//227 608//227
f 615//9 520//9 534//9
f 534//227 540//227 615//227
f 615//12 616//12 520//12
f 615//12 617//12 616//12
f 617//3 618//3 616//3
f 618//227 617//227 609//227
f 609//227 617//227 608//227
f 618//189 609//189 619//189
f 620//189 618//189 619//189
f 618//3 620//3 621//3
f 621//3 315//3 618//3
f 618//3 315//3 616//3
f 315//182 621//182 622//182
f 622//183 621//183 623//183
f 624//183 623//183 621//183
f 624//3 621//3 620//3
f 624//13 620//13 619//13
f 623//13 624//13 619//13
f 627//3 625//3 623//3
f 626//3 623//3 625//3
f 626//183 628//183 623//183
f 619//3 627//3 623//3
f 622//183 623//183 628//183
f 628//228 629//228 633//228
f 628//229 630//229 629//229
f 631//230 630//230 628//230
f 628//231 632//231 631//231
f 628//183 626//183 632//183
f 622//232 628//232 633//232
f 629//9 634//9 633//9
f 635//9 633//9 634//9
f 609//9 633//9 635//9
f 633//9 609//9 309//9
f 310//233 317//233 633//233
f 310//9 633//9 309//9
f 633//234 317//234 622//234
f 635//16 634//16 625//16
f 635//16 625//16 627//16
f 609//189 635//189 619//189
f 627//189 619//189 635//189
f 634//9 629//9 612//9
f 634//188 636//188 625//188
f 636//188 634//188 612//188
f 637//3 638//3 636//3
f 636//190 612//190 637//190
f 636//3 626//3 625//3
f 626//3 636//3 638//3
f 626//235 638//235 639//235
f 638//12 640//12 639//12
f 638//12 637//12 640//12
f 640//3 611//3 639//3
f 640//236 637//236 611//236
f 641//3 639//3 632//3
f 639//235 641//235 626//235
f 632//3 639//3 643//3
f 642//3 639//3 611//3
f 642//3 644//3 639//3
f 643//3 639//3 644//3
f 642//3 647//3 644//3
f 645//153 644//153 647//153
f 645//191 646//191 644//191
f 646//192 648//192 644//192
f 643//192 644//192 648//192
f 645//16 648//16 649//16
f 645//16 643//16 648//16
f 646//9 652//9 648//9
f 649//16 648//16 651//16
f 650//9 648//9 653//9
f 650//16 651//16 648//16
f 653//9 648//9 652//9
f 653//237 652//237 585//237
f 650//238 653//238 654//238
f 653//237 585//237 654//237
f 654//9 589//9 612//9
f 654//9 612//9 629//9
f 651//9 654//9 629//9
f 585//9 589//9 654//9
f 650//238 654//238 651//238
f 646//9 656//9 652//9
f 585//12 652//12 655//12
f 655//9 652//9 656//9
f 657//194 582//194 656//194
f 655//194 656//194 582//194
f 657//193 656//193 646//193
f 574//9 657//9 658//9
f 657//9 574//9 582//9
f 657//193 646//193 649//193
f 658//9 657//9 649//9
f 658//201 572//201 574//201
f 659//9 658//9 649//9
f 660//239 658//239 659//239
f 572//240 658//240 660//240
f 572//200 660//200 647//200
f 662//200 647//200 660//200
f 660//241 659//241 630//241
f 660//242 630//242 631//242
f 631//243 661//243 660//243
f 662//243 660//243 661//243
f 647//3 662//3 645//3
f 661//3 643//3 662//3
f 643//3 645//3 662//3
f 661//231 631//231 632//231
f 643//3 661//3 632//3
f 649//9 651//9 659//9
f 630//9 659//9 651//9
f 585//12 655//12 582//12
f 629//9 630//9 651//9
f 649//244 646//244 645//244
f 647//200 553//200 572//200
f 642//235 549//235 647//235
f 553//235 647//235 549//235
f 549//12 642//12 551//12
f 611//12 551//12 642//12
f 641//183 632//183 626//183
f 637//236 612//236 611//236
f 315//182 622//182 317//182
f 319//245 312//245 616//245
f 616//3 315//3 319//3
f 510//179 616//179 312//179
f 616//179 510//179 520//179
f 613//190 545//190 551//190
f 592//3 613//3 594//3
f 545//3 613//3 592//3
f 594//3 540//3 541//3
f 545//3 592//3 663//3
f 664//3 663//3 592//3
f 664//3 592//3 587//3
f 664//3 584//3 581//3
f 562//3 664//3 581//3
f 664//3 587//3 584//3
f 663//237 664//237 558//237
f 664//12 562//12 558//12
f 665//238 666//238 663//238
f 663//237 558//237 665//237
f 542//3 545//3 663//3
f 667//3 542//3 663//3
f 667//238 663//238 666//238
f 542//3 667//3 668//3
f 669//3 668//3 667//3
f 557//3 669//3 667//3
f 557//16 667//16 556//16
f 666//16 556//16 667//16
f 669//246 561//246 571//246
f 668//247 669//247 571//247
f 561//3 669//3 557//3
f 537//248 542//248 668//248
f 668//249 571//249 670//249
f 668//250 670//250 537//250
f 670//243 571//243 671//243
f 671//231 538//231 670//231
f 537//231 670//231 538//231
f 571//243 672//243 671//243
f 671//9 672//9 550//9
f 671//9 550//9 538//9
f 571//200 553//200 672//200
f 553//9 554//9 672//9
f 550//9 672//9 554//9
f 666//3 665//3 556//3
f 558//3 556//3 665//3
f 562//40 581//40 565//40
f 563//12 558//12 562//12
f 563//3 559//3 558//3
f 557//16 556//16 554//16
f 550//16 554//16 556//16
f 534//189 543//189 540//189
f 289//3 541//3 288//3
f 284//251 288//251 533//251
f 529//245 520//245 286//245
f 523//49 145//49 146//49
f 523//3 209//3 271//3
f 209//12 523//12 210//12
f 146//12 210//12 523//12
f 523//3 271//3 269//3
f 123//175 132//175 521//175
f 123//12 521//12 518//12
f 517//178 673//178 518//178
f 518//9 673//9 123//9
f 673//252 517//252 674//252
f 673//9 674//9 123//9
f 675//252 674//252 517//252
f 674//253 675//253 677//253
f 676//253 674//253 677//253
f 674//9 676//9 123//9
f 675//3 106//3 677//3
f 678//3 677//3 106//3
f 678//254 676//254 677//254
f 680//255 678//255 679//255
f 679//3 678//3 106//3
f 676//256 678//256 680//256
f 680//257 679//257 681//257
f 681//9 123//9 680//9
f 680//9 123//9 676//9
f 681//9 122//9 123//9
f 681//258 682//258 122//258
f 682//259 681//259 679//259
f 122//260 682//260 114//260
f 682//3 106//3 114//3
f 679//3 106//3 682//3
f 675//3 517//3 106//3
f 298//9 510//9 312//9
f 506//12 399//12 404//12
f 455//49 506//49 404//49
f 399//71 499//71 401//71
f 323//261 459//261 460//261
f 460//262 328//262 323//262
f 459//263 323//263 313//263
f 454//47 451//47 37//47
f 454//46 37//46 453//46
f 31//264 452//264 453//264
f 38//46 453//46 37//46
f 31//264 453//264 38//264
f 27//11 452//11 31//11
f 35//47 37//47 451//47
f 445//3 683//3 447//3
f 447//3 683//3 57//3
f 684//265 683//265 445//265
f 685//266 683//266 684//266
f 683//3 34//3 57//3
f 685//266 34//266 683//266
f 59//267 34//267 685//267
f 685//3 684//3 687//3
f 685//3 687//3 686//3
f 59//3 685//3 686//3
f 684//3 688//3 687//3
f 66//16 686//16 687//16
f 66//16 687//16 688//16
f 684//3 431//3 688//3
f 66//16 688//16 428//16
f 431//3 428//3 688//3
f 66//16 63//16 686//16
f 59//3 686//3 63//3
f 684//265 445//265 431//265
f 431//268 445//268 430//268
f 440//3 430//3 441//3
f 435//3 430//3 440//3
f 426//87 437//87 424//87
f 689//9 437//9 404//9
f 689//87 424//87 437//87
f 424//86 689//86 420//86
f 420//9 689//9 404//9
f 424//86 420//86 421//86
f 400//9 420//9 404//9
f 400//84 403//84 407//84
f 389//74 394//74 387//74
f 382//3 10//3 378//3
f 364//16 380//16 381//16
f 364//16 381//16 375//16
f 374//3 375//3 381//3
f 364//16 375//16 370//16
f 337//269 368//269 10//269
f 337//269 360//269 368//269
f 356//270 361//270 342//270
f 342//271 361//271 360//271
f 342//271 360//271 337//271
f 335//272 357//272 358//272
f 334//273 358//273 355//273
f 335//274 358//274 334//274
f 357//275 333//275 351//275
f 357//275 335//275 333//275
f 336//276 355//276 356//276
f 336//276 356//276 338//276
f 342//270 338//270 356//270
f 334//277 355//277 336//277
f 343//278 352//278 351//278
f 343//279 350//279 352//279
f 343//278 351//278 333//278
f 344//280 347//280 350//280
f 344//281 350//281 332//281
f 332//282 350//282 343//282
f 690//3 341//3 694//3
f 341//3 690//3 695//3
f 692//3 341//3 691//3
f 691//3 341//3 696//3
f 694//3 341//3 692//3
f 340//283 693//283 341//283
f 696//3 341//3 693//3
f 341//12 695//12 329//12
f 21//284 696//284 19//284
f 696//285 697//285 19//285
f 693//3 697//3 696//3
f 30//286 691//286 696//286
f 30//286 696//286 21//286
f 19//287 697//287 699//287
f 693//3 698//3 697//3
f 699//3 697//3 698//3
f 19//287 699//287 5//287
f 5//2 699//2 3//2
f 3//3 699//3 2//3
f 2//3 699//3 698//3
f 698//288 4//288 2//288
f 4//289 698//289 700//289
f 700//290 698//290 693//290
f 4//3 700//3 10//3
f 700//3 340//3 10//3
f 700//291 693//291 340//291
f 324//13 695//13 701//13
f 324//13 329//13 695//13
f 701//3 695//3 702//3
f 702//3 695//3 703//3
f 695//3 690//3 703//3
f 702//292 703//292 39//292
f 39//293 703//293 690//293
f 701//294 702//294 40//294
f 40//292 702//292 39//292
f 701//294 40//294 52//294
f 701//13 52//13 324//13
f 694//295 54//295 690//295
f 54//296 694//296 692//296
f 54//297 692//297 55//297
f 55//298 692//298 691//298
f 55//298 691//298 30//298
f 53//299 690//299 54//299
f 39//293 690//293 53//293
f 328//101 339//101 327//101
f 324//13 52//13 56//13
f 323//300 316//300 313//300
f 298//9 312//9 299//9
f 293//301 303//301 290//301
f 298//174 65//174 66//174
f 298//302 112//302 65//302
f 293//303 290//303 291//303
f 281//3 148//3 145//3
f 281//3 275//3 148//3
f 131//9 278//9 280//9
f 278//13 131//13 133//13
f 133//304 166//304 278//304
f 212//3 148//3 275//3
f 209//3 270//3 271//3
f 225//16 704//16 194//16
f 225//16 194//16 195//16
f 225//16 195//16 220//16
f 193//78 704//78 225//78
f 193//65 194//65 704//65
f 196//9 220//9 195//9
f 218//3 216//3 210//3
f 213//73 198//73 197//73
f 148//16 212//16 174//16
f 187//3 174//3 189//3
f 185//3 174//3 187//3
f 180//3 174//3 181//3
f 180//3 177//3 174//3
f 177//3 173//3 174//3
f 176//9 166//9 170//9
f 148//16 174//16 147//16
f 170//9 166//9 171//9
f 171//9 166//9 167//9
f 133//9 161//9 166//9
f 155//3 147//3 159//3
f 136//264 141//264 151//264
f 137//264 141//264 136//264
f 126//305 132//305 123//305
f 122//43 114//43 120//43
f 114//43 115//43 120//43
f 107//306 106//306 108//306
f 41//307 108//307 48//307
f 65//16 103//16 104//16
f 65//16 104//16 98//16
f 97//3 98//3 104//3
f 65//16 98//16 92//16
f 65//16 80//16 76//16
f 73//308 45//308 47//308
f 68//309 51//309 60//309
f 68//309 50//309 51//309
f 66//16 62//16 63//16
f 59//310 33//310 34//310
f 21//3 25//3 30//3
f 17//9 28//9 22//9
f 15//9 28//9 17//9
f 22//9 28//9 23//9
f 16//9 28//9 15//9
f 13//53 12//53 16//53
